M48
;Layer_Color=9474304
;FILE_FORMAT=4:4
METRIC,LZ
;TYPE=PLATED
T1F00S00C0.3000
T2F00S00C0.3300
T3F00S00C0.5000
T4F00S00C0.9000
;TYPE=NON_PLATED
T5F00S00C2.5000
%
T01
X00194305Y00078211
X00195159Y0012153
X002232Y001036
X002317Y001341
X002532Y001364
X002384Y00198037
X002627Y000559
X002809Y000381
X00319Y000429
X003592Y00079
X003596Y001095
X003568Y001205
X003458Y001386
X003305Y001589
X003223Y001188
X002927Y00127
X002912Y001696
X004327Y001543
X00333527Y00270325
X002402Y002795
X00246926Y00241164
X0023249Y00241175
X00157377Y00257228
T02
X002488Y000888
Y001008
X002608
Y001128
X002488
X002608Y000888
X002728
Y001008
Y001128
T03
X00225562Y00351288
X00240022Y00338908
Y00376318
X00254472Y00363698
X00254432Y00631288
Y00656498
X00225522Y00668908
Y00643698
T04
X0046Y000188
Y000442
Y000696
Y00095
T05
X00096Y00032
X00384
M30
