G04*
G04 #@! TF.GenerationSoftware,Altium Limited,Altium Designer,21.3.2 (30)*
G04*
G04 Layer_Color=128*
%FSLAX44Y44*%
%MOMM*%
G71*
G04*
G04 #@! TF.SameCoordinates,C0BB7E1C-5EEE-4355-A842-C900462BBBA7*
G04*
G04*
G04 #@! TF.FilePolarity,Positive*
G04*
G01*
G75*
%ADD50C,0.1270*%
D50*
X455500Y18800D02*
X464500D01*
X460000Y14300D02*
Y23300D01*
X455500Y44200D02*
X464500D01*
X460000Y39700D02*
Y48700D01*
X455500Y69600D02*
X464500D01*
X460000Y65100D02*
Y74100D01*
X455500Y95000D02*
X464500D01*
X460000Y90500D02*
Y99500D01*
X237522Y338908D02*
X242522D01*
X240022Y336408D02*
Y341408D01*
X223062Y351288D02*
X228062D01*
X225562Y348788D02*
Y353788D01*
X237522Y376318D02*
X242522D01*
X240022Y373818D02*
Y378818D01*
X251972Y363698D02*
X256972D01*
X254472Y361198D02*
Y366198D01*
X251932Y631288D02*
X256932D01*
X254432Y628788D02*
Y633788D01*
X223022Y643698D02*
X228022D01*
X225522Y641198D02*
Y646198D01*
X251932Y656498D02*
X256932D01*
X254432Y653998D02*
Y658998D01*
X223022Y668908D02*
X228022D01*
X225522Y666408D02*
Y671408D01*
X371500Y32000D02*
X396500D01*
X384000Y19500D02*
Y44500D01*
X83500Y32000D02*
X108500D01*
X96000Y19500D02*
Y44500D01*
X259150Y100800D02*
X262450D01*
X260800Y99150D02*
Y102450D01*
X247150Y112800D02*
X250450D01*
X248800Y111150D02*
Y114450D01*
X259150Y112800D02*
X262450D01*
X260800Y111150D02*
Y114450D01*
X271150Y112800D02*
X274450D01*
X272800Y111150D02*
Y114450D01*
X247150Y100800D02*
X250450D01*
X248800Y99150D02*
Y102450D01*
X271150Y100800D02*
X274450D01*
X272800Y99150D02*
Y102450D01*
X247150Y88800D02*
X250450D01*
X248800Y87150D02*
Y90450D01*
X259150Y88800D02*
X262450D01*
X260800Y87150D02*
Y90450D01*
X271150Y88800D02*
X274450D01*
X272800Y87150D02*
Y90450D01*
X431200Y154300D02*
X434200D01*
X432700Y152800D02*
Y155800D01*
X261200Y55900D02*
X264200D01*
X262700Y54400D02*
Y57400D01*
X291200Y127000D02*
X294200D01*
X292700Y125500D02*
Y128500D01*
X355300Y120500D02*
X358300D01*
X356800Y119000D02*
Y122000D01*
X221700Y103600D02*
X224700D01*
X223200Y102100D02*
Y105100D01*
X236900Y198037D02*
X239900D01*
X238400Y196537D02*
Y199537D01*
X193659Y121530D02*
X196659D01*
X195159Y120030D02*
Y123030D01*
X192805Y78211D02*
X195805D01*
X194305Y76711D02*
Y79710D01*
X279400Y38100D02*
X282400D01*
X280900Y36600D02*
Y39600D01*
X317500Y42900D02*
X320500D01*
X319000Y41400D02*
Y44400D01*
X357700Y79000D02*
X360700D01*
X359200Y77500D02*
Y80500D01*
X358100Y109500D02*
X361100D01*
X359600Y108000D02*
Y111000D01*
X320800Y118800D02*
X323800D01*
X322300Y117300D02*
Y120300D01*
X344300Y138600D02*
X347300D01*
X345800Y137100D02*
Y140100D01*
X329000Y158900D02*
X332000D01*
X330500Y157400D02*
Y160400D01*
X289700Y169600D02*
X292700D01*
X291200Y168100D02*
Y171100D01*
X230200Y134100D02*
X233200D01*
X231700Y132600D02*
Y135600D01*
X251700Y136400D02*
X254700D01*
X253200Y134900D02*
Y137900D01*
X155877Y257228D02*
X158877D01*
X157377Y255728D02*
Y258728D01*
X332027Y270325D02*
X335027D01*
X333527Y268825D02*
Y271825D01*
X245426Y241164D02*
X248426D01*
X246926Y239664D02*
Y242664D01*
X230990Y241175D02*
X233990D01*
X232490Y239675D02*
Y242675D01*
X238700Y279500D02*
X241700D01*
X240200Y278000D02*
Y281000D01*
M02*
