G04*
G04 #@! TF.GenerationSoftware,Altium Limited,Altium Designer,21.3.2 (30)*
G04*
G04 Layer_Physical_Order=1*
G04 Layer_Color=255*
%FSLAX44Y44*%
%MOMM*%
G71*
G04*
G04 #@! TF.SameCoordinates,C0BB7E1C-5EEE-4355-A842-C900462BBBA7*
G04*
G04*
G04 #@! TF.FilePolarity,Positive*
G04*
G01*
G75*
%ADD10R,3.4500X3.4500*%
%ADD11O,0.2800X0.8000*%
%ADD12O,0.8000X0.2800*%
%ADD13R,0.8000X0.2800*%
%ADD14R,0.9000X0.8000*%
%ADD15R,0.8000X0.9000*%
%ADD16R,1.0000X1.0000*%
%ADD34C,1.0000*%
%ADD35C,0.5000*%
%ADD36C,0.1500*%
%ADD37C,0.2800*%
%ADD38C,0.8000*%
%ADD39C,0.2500*%
%ADD40C,0.2000*%
%ADD41C,0.4000*%
%ADD42C,0.7620*%
%ADD43C,0.1000*%
%ADD44C,1.5000*%
%ADD45R,1.5000X1.5000*%
%ADD46C,1.0000*%
%ADD47C,0.6600*%
%ADD48C,0.6000*%
G36*
X258900Y279500D02*
X259282D01*
Y276500D01*
X256400D01*
Y263500D01*
X259282D01*
Y260500D01*
X256400D01*
Y247500D01*
X259282D01*
Y244500D01*
X255400D01*
Y234359D01*
X247620D01*
X247495Y235629D01*
X249088Y235946D01*
X250920Y237170D01*
X252144Y239002D01*
X252322Y239894D01*
X246926D01*
Y242434D01*
X252322D01*
X252144Y243326D01*
X251988Y243560D01*
Y246960D01*
X253940D01*
Y252730D01*
X247400D01*
Y255270D01*
X253940D01*
Y261040D01*
X251988D01*
Y262960D01*
X253940D01*
Y268730D01*
X247400D01*
Y271270D01*
X253940D01*
Y277040D01*
X248009D01*
X247104Y278310D01*
X247260Y279500D01*
X247060Y281019D01*
Y290000D01*
X258900D01*
Y279500D01*
D02*
G37*
G36*
X232939Y279700D02*
X233123Y278310D01*
X232306Y277040D01*
X225760D01*
Y271270D01*
X232300D01*
Y268730D01*
X225760D01*
Y262960D01*
X227712D01*
Y261040D01*
X225760D01*
Y255270D01*
X232300D01*
Y252730D01*
X225760D01*
Y246960D01*
X227712D01*
Y243996D01*
X227271Y243337D01*
X227094Y242445D01*
X232490D01*
Y239905D01*
X227094D01*
X227271Y239013D01*
X228496Y237181D01*
X230328Y235956D01*
X231975Y235629D01*
X231850Y234359D01*
X224300D01*
Y244500D01*
X220518D01*
Y247500D01*
X223300D01*
Y260500D01*
X220518D01*
Y263500D01*
X223300D01*
Y269409D01*
X223417Y270000D01*
X223300Y270591D01*
Y276500D01*
X220518D01*
Y279500D01*
X220900D01*
Y290000D01*
X232939D01*
Y279700D01*
D02*
G37*
G36*
X473941Y6059D02*
X6059D01*
X6059Y290000D01*
X207900D01*
Y279500D01*
X208282D01*
Y276500D01*
X196300D01*
Y270591D01*
X196182Y270000D01*
X196300Y269409D01*
Y263500D01*
X208282D01*
Y241400D01*
X208748Y239059D01*
X210074Y237074D01*
X211300Y235848D01*
Y234359D01*
X194400D01*
X193230Y234126D01*
X192237Y233463D01*
X192237Y233463D01*
X191532Y232758D01*
X190359Y233244D01*
Y263500D01*
X193300D01*
Y276500D01*
X181300D01*
Y273466D01*
X178400D01*
Y276500D01*
X166400D01*
Y263500D01*
X178400D01*
Y266533D01*
X181300D01*
Y263500D01*
X184241D01*
Y230417D01*
X182417Y228593D01*
X181754Y227600D01*
X181521Y226430D01*
X181521Y226430D01*
Y108770D01*
X181521Y108770D01*
X181754Y107600D01*
X182417Y106607D01*
X201915Y87110D01*
X201388Y85840D01*
X199160D01*
Y83388D01*
X196528D01*
X196467Y83429D01*
X195575Y83606D01*
Y78211D01*
Y72815D01*
X196467Y72992D01*
X197890Y73943D01*
X199160Y73398D01*
Y71760D01*
X201112D01*
Y69840D01*
X199160D01*
Y64070D01*
X205700D01*
X212240D01*
Y69840D01*
X210288D01*
Y71760D01*
X212240D01*
Y77530D01*
X205700D01*
Y80070D01*
X212240D01*
Y85241D01*
X214700D01*
Y72300D01*
X217233D01*
Y69300D01*
X214700D01*
Y56300D01*
X226700D01*
Y69300D01*
X224167D01*
Y72300D01*
X226700D01*
Y79833D01*
X238724D01*
X239306Y79481D01*
X239481Y79306D01*
X239833Y78724D01*
Y73700D01*
X240097Y72373D01*
X240849Y71249D01*
X241973Y70497D01*
X243300Y70233D01*
X244627Y70497D01*
X245370Y70994D01*
X245459Y70859D01*
X246763Y69989D01*
X247030Y69935D01*
Y76300D01*
X249570D01*
Y69935D01*
X249837Y69989D01*
X251141Y70859D01*
X251230Y70994D01*
X251973Y70497D01*
X253300Y70233D01*
X254627Y70497D01*
X255751Y71249D01*
X255849D01*
X256973Y70497D01*
X258300Y70233D01*
X259681Y69213D01*
X259718Y68921D01*
X252467Y61671D01*
X251860Y60761D01*
X251646Y59688D01*
Y39350D01*
X251860Y38277D01*
X252467Y37367D01*
X262855Y26980D01*
X263764Y26372D01*
X264837Y26159D01*
X338720D01*
X339793Y26372D01*
X340703Y26980D01*
X388100Y74377D01*
X445659Y16817D01*
X446569Y16210D01*
X447642Y15996D01*
X450879D01*
X451702Y14009D01*
X453224Y12025D01*
X455209Y10502D01*
X457520Y9545D01*
X460000Y9218D01*
X462480Y9545D01*
X464791Y10502D01*
X466775Y12025D01*
X468298Y14009D01*
X469255Y16320D01*
X469582Y18800D01*
X469255Y21280D01*
X468298Y23591D01*
X466775Y25575D01*
X464791Y27098D01*
X462480Y28055D01*
X460000Y28382D01*
X457520Y28055D01*
X455209Y27098D01*
X453224Y25575D01*
X451702Y23591D01*
X450879Y21604D01*
X448803D01*
X390904Y79503D01*
Y120739D01*
X398165Y128000D01*
X410700D01*
Y137579D01*
X411970Y137765D01*
X413700Y136035D01*
Y128000D01*
X417396D01*
Y84000D01*
X417610Y82927D01*
X418217Y82017D01*
X451568Y48667D01*
X450745Y46680D01*
X450418Y44200D01*
X450745Y41720D01*
X451702Y39409D01*
X453224Y37424D01*
X455209Y35902D01*
X457520Y34945D01*
X460000Y34618D01*
X462480Y34945D01*
X464791Y35902D01*
X466775Y37424D01*
X468298Y39409D01*
X469255Y41720D01*
X469582Y44200D01*
X469255Y46680D01*
X468298Y48991D01*
X466775Y50975D01*
X464791Y52498D01*
X462480Y53455D01*
X460000Y53782D01*
X457520Y53455D01*
X455533Y52632D01*
X423004Y85161D01*
Y128000D01*
X426700D01*
Y140000D01*
X417665D01*
X416053Y141613D01*
X416579Y142882D01*
X420200D01*
X420791Y143000D01*
X426700D01*
Y151022D01*
X427970Y151407D01*
X428706Y150306D01*
X430538Y149081D01*
X431430Y148904D01*
Y154300D01*
X432700D01*
Y155570D01*
X438096D01*
X437919Y156462D01*
X437788Y156657D01*
Y159360D01*
X440240D01*
X440540Y158214D01*
Y107400D01*
X440780Y105573D01*
X441485Y103870D01*
X442607Y102408D01*
X450500Y94515D01*
Y85500D01*
X469500D01*
Y104500D01*
X460485D01*
X454660Y110324D01*
Y174542D01*
X454420Y176369D01*
X453714Y178072D01*
X452592Y179535D01*
X446735Y185392D01*
X445272Y186514D01*
X443569Y187220D01*
X441742Y187460D01*
X417700D01*
X415873Y187220D01*
X415101Y186900D01*
X411700D01*
Y184079D01*
X411586Y183930D01*
X410880Y182227D01*
X410640Y180400D01*
X410880Y178573D01*
X411586Y176870D01*
X411700Y176721D01*
Y173900D01*
X415101D01*
X415873Y173580D01*
X417700Y173340D01*
X425266D01*
X426160Y172440D01*
Y167170D01*
X433200D01*
Y164630D01*
X426160D01*
Y159360D01*
X428306D01*
X428569Y158090D01*
X427481Y156462D01*
X427387Y155985D01*
X426700Y155000D01*
X425896Y155000D01*
X420791D01*
X420200Y155118D01*
X408817D01*
Y180400D01*
X408700Y180991D01*
Y186900D01*
X396700D01*
Y186518D01*
X319900D01*
X317559Y186052D01*
X315574Y184726D01*
X301874Y171026D01*
X300548Y169041D01*
X300082Y166700D01*
Y158900D01*
Y147400D01*
X300200Y146809D01*
Y141302D01*
X299010Y140112D01*
X297740Y140639D01*
Y141630D01*
X291200D01*
X284660D01*
Y138967D01*
X282200D01*
Y149400D01*
X279667D01*
Y152400D01*
X282200D01*
Y165400D01*
X270200D01*
Y152400D01*
X272733D01*
Y149400D01*
X270200D01*
Y140635D01*
X270133Y140300D01*
Y139799D01*
X269988Y139700D01*
X268717Y140373D01*
Y173957D01*
X268517Y174963D01*
Y177500D01*
X268400Y178091D01*
Y183500D01*
X262991D01*
X262400Y183617D01*
X261900D01*
X261309Y183500D01*
X255400D01*
Y171500D01*
X256483D01*
Y141567D01*
X255362Y140969D01*
X255151Y141110D01*
X253200Y141498D01*
X251249Y141110D01*
X249595Y140005D01*
X249394Y139703D01*
X248045Y139971D01*
X247952Y140441D01*
X246626Y142426D01*
X223918Y165134D01*
Y171500D01*
X224300D01*
Y183500D01*
X218391D01*
X217800Y183617D01*
X217209Y183500D01*
X211300D01*
Y171500D01*
X211682D01*
Y162600D01*
X212148Y160259D01*
X213474Y158274D01*
X225979Y145770D01*
X225452Y144500D01*
X214800D01*
Y131500D01*
X217333D01*
Y128500D01*
X214800D01*
Y115500D01*
X226800D01*
Y128500D01*
X224267D01*
Y129732D01*
X225000Y130333D01*
X228337D01*
X229749Y129390D01*
X231700Y129002D01*
X233651Y129390D01*
X235305Y130495D01*
X236410Y132149D01*
X236641Y133311D01*
X237974Y133774D01*
X239959Y132448D01*
X240552Y132330D01*
X240758Y132012D01*
X240645Y130864D01*
X240459Y130741D01*
X239589Y129437D01*
X239283Y127900D01*
Y126570D01*
X243300D01*
Y124030D01*
X239283D01*
Y122985D01*
X239161Y122598D01*
X238174Y121767D01*
X233700D01*
X232373Y121503D01*
X231249Y120751D01*
X230497Y119627D01*
X230233Y118300D01*
X230497Y116973D01*
X231249Y115849D01*
Y115751D01*
X230497Y114627D01*
X230233Y113300D01*
X230497Y111973D01*
X231249Y110849D01*
Y110751D01*
X230497Y109627D01*
X230233Y108300D01*
X230316Y107884D01*
X229326Y106614D01*
X227200D01*
X226805Y107205D01*
X225151Y108310D01*
X223200Y108698D01*
X221249Y108310D01*
X219595Y107205D01*
X218490Y105551D01*
X218102Y103600D01*
X218490Y101649D01*
X219595Y99995D01*
X221249Y98890D01*
X223200Y98502D01*
X225151Y98890D01*
X226791Y99986D01*
X228723D01*
X229065Y99570D01*
X236300D01*
Y97030D01*
X229359D01*
X228847Y96359D01*
X206267D01*
X191139Y111487D01*
Y116026D01*
X192409Y116705D01*
X192997Y116312D01*
X193889Y116134D01*
Y121530D01*
Y126926D01*
X192997Y126749D01*
X192409Y126356D01*
X191139Y127035D01*
Y223713D01*
X195667Y228241D01*
X211300D01*
Y226099D01*
X210980Y225327D01*
X210739Y223500D01*
X210740Y223499D01*
Y192500D01*
X210980Y190673D01*
X211300Y189900D01*
Y186500D01*
X214121D01*
X214270Y186385D01*
X215973Y185680D01*
X217800Y185440D01*
X219627Y185680D01*
X221330Y186385D01*
X221479Y186500D01*
X224300D01*
Y189900D01*
X224620Y190673D01*
X224860Y192500D01*
Y200066D01*
X225760Y200960D01*
X226130Y200960D01*
X232279D01*
X233080Y199690D01*
X233004Y199307D01*
X243796D01*
X243720Y199690D01*
X244521Y200960D01*
X246130D01*
Y208000D01*
Y215040D01*
X240860D01*
Y212588D01*
X238840D01*
Y215040D01*
X233570D01*
Y208000D01*
X231030D01*
Y215040D01*
X226130D01*
X225760Y215040D01*
X224860Y215934D01*
Y223500D01*
X224620Y225327D01*
X224300Y226099D01*
Y228241D01*
X255400D01*
Y226099D01*
X255080Y225327D01*
X254839Y223500D01*
Y215934D01*
X253940Y215040D01*
X253570Y215040D01*
X248670D01*
Y208000D01*
Y200960D01*
X253570D01*
X253940Y200960D01*
X254839Y200066D01*
Y192500D01*
X255080Y190673D01*
X255400Y189900D01*
Y186500D01*
X258221D01*
X258370Y186385D01*
X260073Y185680D01*
X261900Y185440D01*
X263727Y185680D01*
X265430Y186385D01*
X265579Y186500D01*
X268400D01*
Y189900D01*
X268720Y190673D01*
X268960Y192500D01*
Y223500D01*
X268720Y225327D01*
X268400Y226099D01*
Y228241D01*
X273400D01*
X273400Y228241D01*
X274571Y228474D01*
X275563Y229137D01*
X294563Y248137D01*
X294563Y248137D01*
X295226Y249129D01*
X295459Y250300D01*
X295459Y250300D01*
Y263500D01*
X298400D01*
Y266533D01*
X301300D01*
Y263500D01*
X313300D01*
Y276500D01*
X301300D01*
Y273466D01*
X298400D01*
Y276500D01*
X286400D01*
Y263500D01*
X289341D01*
Y251567D01*
X272133Y234359D01*
X268400D01*
Y235848D01*
X269726Y237174D01*
X271052Y239159D01*
X271518Y241500D01*
Y263500D01*
X283400D01*
Y269409D01*
X283517Y270000D01*
X283400Y270591D01*
Y276500D01*
X271518D01*
Y279500D01*
X271900D01*
Y290000D01*
X473941D01*
X473941Y6059D01*
D02*
G37*
G36*
X396582Y155118D02*
X381300D01*
X378959Y154652D01*
X376974Y153326D01*
X363794Y140145D01*
X362468Y138161D01*
X362002Y135820D01*
Y134853D01*
X353613Y126465D01*
X352440Y126951D01*
Y133940D01*
X352018D01*
Y138500D01*
X351552Y140841D01*
X350226Y142826D01*
X350126Y142926D01*
X348141Y144252D01*
X345800Y144718D01*
X343459Y144252D01*
X341474Y142926D01*
X340148Y140941D01*
X339683Y138600D01*
X339782Y138097D01*
Y133940D01*
X339360D01*
Y128170D01*
X345900D01*
Y125630D01*
X339360D01*
Y123748D01*
X338400Y122978D01*
X338170Y122933D01*
X336900Y123975D01*
Y133400D01*
X329803D01*
X328348Y134854D01*
X327740Y135860D01*
X327740D01*
X327740Y135860D01*
Y141630D01*
X321200D01*
Y144170D01*
X327740D01*
Y149940D01*
X327318D01*
Y151860D01*
X327740D01*
Y152782D01*
X330500D01*
X332841Y153248D01*
X334826Y154574D01*
X336152Y156559D01*
X336618Y158900D01*
X336152Y161241D01*
X334826Y163226D01*
X332841Y164552D01*
X330500Y165018D01*
X327740D01*
Y165940D01*
X322470D01*
Y158900D01*
X319930D01*
Y165940D01*
X315888D01*
X315361Y167210D01*
X322434Y174282D01*
X396582D01*
Y155118D01*
D02*
G37*
G36*
X395793Y141613D02*
X381717Y127536D01*
X381110Y126627D01*
X380896Y125554D01*
Y79346D01*
X336316Y34766D01*
X286682D01*
X286162Y35740D01*
X286138Y36036D01*
X286549Y38100D01*
X286513Y38278D01*
X287230Y39152D01*
Y45800D01*
X288500D01*
D01*
X287230D01*
Y52340D01*
X281460D01*
Y49878D01*
X279540D01*
Y52340D01*
X273770D01*
Y45800D01*
X271230D01*
Y52340D01*
X270178D01*
X269830Y52955D01*
X269713Y53610D01*
X270903Y54800D01*
X279000D01*
Y61898D01*
X280827Y63724D01*
X282000Y63238D01*
Y54800D01*
X295000D01*
Y55701D01*
X296270Y56227D01*
X298000Y54497D01*
Y46400D01*
X310000D01*
Y58300D01*
X311190Y59296D01*
X312460Y59128D01*
Y54170D01*
X319000D01*
X325540D01*
Y59917D01*
X325915Y60167D01*
X325943Y60196D01*
X328000D01*
Y56500D01*
X340000D01*
Y69500D01*
X328000D01*
Y65804D01*
X325000D01*
Y76196D01*
X328000D01*
Y72500D01*
X340000D01*
Y85500D01*
X333762D01*
X333276Y86673D01*
X335003Y88400D01*
X342100D01*
Y96973D01*
X343273Y97459D01*
X344560Y96172D01*
Y96170D01*
X351100D01*
Y94900D01*
X352370D01*
Y87860D01*
X357640D01*
Y93288D01*
X363926Y99574D01*
X365252Y101559D01*
X365718Y103900D01*
Y109500D01*
X365252Y111841D01*
X363926Y113826D01*
X362526Y115226D01*
X361895Y115647D01*
X361734Y117282D01*
X372445Y127994D01*
X373771Y129979D01*
X374237Y132319D01*
Y133286D01*
X383834Y142882D01*
X395267D01*
X395793Y141613D01*
D02*
G37*
%LPC*%
G36*
X334797Y275721D02*
Y271595D01*
X338923D01*
X338745Y272486D01*
X337521Y274319D01*
X335688Y275543D01*
X334797Y275721D01*
D02*
G37*
G36*
X163940Y277040D02*
X158670D01*
Y271270D01*
X163940D01*
Y277040D01*
D02*
G37*
G36*
X156130D02*
X150860D01*
Y271270D01*
X156130D01*
Y277040D01*
D02*
G37*
G36*
X321030D02*
X315760D01*
Y271270D01*
X321030D01*
Y277040D01*
D02*
G37*
G36*
X338923Y269055D02*
X334797D01*
Y264929D01*
X335688Y265106D01*
X337521Y266331D01*
X338745Y268163D01*
X338923Y269055D01*
D02*
G37*
G36*
X328840Y277040D02*
X323570D01*
Y270000D01*
Y262960D01*
X328840D01*
Y265412D01*
X330908D01*
X331365Y265106D01*
X332257Y264929D01*
Y270325D01*
Y275721D01*
X331365Y275543D01*
X330110Y274705D01*
X328840Y275060D01*
Y277040D01*
D02*
G37*
G36*
X321030Y268730D02*
X315760D01*
Y262960D01*
X321030D01*
Y268730D01*
D02*
G37*
G36*
X163940Y268730D02*
X157400D01*
X150860D01*
Y262960D01*
X152812D01*
Y260368D01*
X152158Y259389D01*
X151981Y258498D01*
X162773D01*
X162595Y259389D01*
X161988Y260298D01*
Y262960D01*
X163940D01*
Y268730D01*
D02*
G37*
G36*
X162773Y255958D02*
X158647D01*
Y251832D01*
X159538Y252009D01*
X161371Y253234D01*
X162595Y255066D01*
X162773Y255958D01*
D02*
G37*
G36*
X156107D02*
X151981D01*
X152158Y255066D01*
X153383Y253234D01*
X155215Y252009D01*
X156107Y251832D01*
Y255958D01*
D02*
G37*
G36*
X243796Y196767D02*
X239670D01*
Y192641D01*
X240562Y192819D01*
X242394Y194043D01*
X243619Y195876D01*
X243796Y196767D01*
D02*
G37*
G36*
X237130D02*
X233004D01*
X233181Y195876D01*
X234406Y194043D01*
X236238Y192819D01*
X237130Y192641D01*
Y196767D01*
D02*
G37*
G36*
X291200Y175718D02*
X288859Y175252D01*
X286874Y173926D01*
X285548Y171941D01*
X285082Y169600D01*
Y165940D01*
X284660D01*
Y160170D01*
X291200D01*
X297740D01*
Y165940D01*
X297318D01*
Y169600D01*
X296852Y171941D01*
X295526Y173926D01*
X293541Y175252D01*
X291200Y175718D01*
D02*
G37*
G36*
X438096Y153030D02*
X433970D01*
Y148904D01*
X434862Y149081D01*
X436694Y150306D01*
X437919Y152138D01*
X438096Y153030D01*
D02*
G37*
G36*
X297740Y157630D02*
X291200D01*
X284660D01*
Y151860D01*
X285082D01*
Y149940D01*
X284660D01*
Y144170D01*
X291200D01*
X297740D01*
Y149940D01*
X297318D01*
Y151860D01*
X297740D01*
Y157630D01*
D02*
G37*
G36*
X212340Y145040D02*
X207070D01*
Y139270D01*
X212340D01*
Y145040D01*
D02*
G37*
G36*
X204530D02*
X199260D01*
Y139270D01*
X204530D01*
Y145040D01*
D02*
G37*
G36*
X212340Y136730D02*
X205800D01*
X199260D01*
Y130960D01*
X201212D01*
Y129040D01*
X199260D01*
Y126588D01*
X197561D01*
X197320Y126749D01*
X196429Y126926D01*
Y121530D01*
Y116134D01*
X197320Y116312D01*
X197990Y116759D01*
X199260Y116080D01*
Y114960D01*
X204530D01*
Y122000D01*
X205800D01*
Y123270D01*
X212340D01*
Y129040D01*
X210388D01*
Y130960D01*
X212340D01*
Y136730D01*
D02*
G37*
G36*
Y120730D02*
X207070D01*
Y114960D01*
X212340D01*
Y120730D01*
D02*
G37*
G36*
X471566Y280282D02*
X457402D01*
Y114500D01*
X471566D01*
Y280282D01*
D02*
G37*
G36*
X193035Y83606D02*
X192143Y83429D01*
X190311Y82205D01*
X189086Y80372D01*
X188909Y79481D01*
X193035D01*
Y83606D01*
D02*
G37*
G36*
Y76940D02*
X188909D01*
X189086Y76049D01*
X190311Y74216D01*
X192143Y72992D01*
X193035Y72815D01*
Y76940D01*
D02*
G37*
G36*
X461270Y79559D02*
Y70870D01*
X469959D01*
X469782Y72221D01*
X468770Y74663D01*
X467161Y76761D01*
X465063Y78370D01*
X462621Y79382D01*
X461270Y79559D01*
D02*
G37*
G36*
X458730D02*
X457379Y79382D01*
X454937Y78370D01*
X452839Y76761D01*
X451230Y74663D01*
X450218Y72221D01*
X450041Y70870D01*
X458730D01*
Y79559D01*
D02*
G37*
G36*
X469959Y68330D02*
X461270D01*
Y59641D01*
X462621Y59818D01*
X465063Y60830D01*
X467161Y62439D01*
X468770Y64537D01*
X469782Y66979D01*
X469959Y68330D01*
D02*
G37*
G36*
X458730D02*
X450041D01*
X450218Y66979D01*
X451230Y64537D01*
X452839Y62439D01*
X454937Y60830D01*
X457379Y59818D01*
X458730Y59641D01*
Y68330D01*
D02*
G37*
G36*
X212240Y61530D02*
X206970D01*
Y55760D01*
X212240D01*
Y61530D01*
D02*
G37*
G36*
X204430D02*
X199160D01*
Y55760D01*
X204430D01*
Y61530D01*
D02*
G37*
G36*
X384000Y46625D02*
X380215Y46127D01*
X376687Y44666D01*
X373658Y42341D01*
X371334Y39313D01*
X369873Y35785D01*
X369375Y32000D01*
X369873Y28215D01*
X371334Y24688D01*
X373658Y21658D01*
X376687Y19334D01*
X380215Y17873D01*
X384000Y17375D01*
X387785Y17873D01*
X391313Y19334D01*
X394342Y21658D01*
X396666Y24688D01*
X398127Y28215D01*
X398625Y32000D01*
X398127Y35785D01*
X396666Y39313D01*
X394342Y42341D01*
X391313Y44666D01*
X387785Y46127D01*
X384000Y46625D01*
D02*
G37*
G36*
X96000D02*
X92215Y46127D01*
X88687Y44666D01*
X85659Y42341D01*
X83334Y39313D01*
X81873Y35785D01*
X81375Y32000D01*
X81873Y28215D01*
X83334Y24688D01*
X85659Y21658D01*
X88687Y19334D01*
X92215Y17873D01*
X96000Y17375D01*
X99785Y17873D01*
X103313Y19334D01*
X106341Y21658D01*
X108666Y24688D01*
X110127Y28215D01*
X110625Y32000D01*
X110127Y35785D01*
X108666Y39313D01*
X106341Y42341D01*
X103313Y44666D01*
X99785Y46127D01*
X96000Y46625D01*
D02*
G37*
G36*
X349830Y93630D02*
X344560D01*
Y87860D01*
X349830D01*
Y93630D01*
D02*
G37*
G36*
X347730Y86040D02*
X342460D01*
Y80270D01*
X347730D01*
Y86040D01*
D02*
G37*
G36*
X355540D02*
X350270D01*
Y79000D01*
X349000D01*
Y77730D01*
X342460D01*
Y71960D01*
X342882D01*
Y70040D01*
X342460D01*
Y64270D01*
X349000D01*
X355540D01*
Y70040D01*
X355117D01*
Y71960D01*
X355540D01*
Y72882D01*
X359200D01*
X361541Y73348D01*
X363526Y74674D01*
X364852Y76659D01*
X365317Y79000D01*
X364852Y81341D01*
X363526Y83326D01*
X361541Y84652D01*
X359200Y85118D01*
X355540D01*
Y86040D01*
D02*
G37*
G36*
Y61730D02*
X350270D01*
Y55960D01*
X355540D01*
Y61730D01*
D02*
G37*
G36*
X347730D02*
X342460D01*
Y55960D01*
X347730D01*
Y61730D01*
D02*
G37*
G36*
X295540Y52340D02*
X289770D01*
Y47070D01*
X295540D01*
Y52340D01*
D02*
G37*
G36*
X325540Y51630D02*
X319000D01*
X312460D01*
Y45860D01*
X312904D01*
X313688Y44590D01*
X313604Y44170D01*
X324396D01*
X324312Y44590D01*
X325096Y45860D01*
X325540D01*
Y51630D01*
D02*
G37*
G36*
X295540Y44530D02*
X289770D01*
Y39260D01*
X295540D01*
Y44530D01*
D02*
G37*
G36*
X324396Y41630D02*
X320270D01*
Y37504D01*
X321162Y37681D01*
X322994Y38906D01*
X324219Y40738D01*
X324396Y41630D01*
D02*
G37*
G36*
X317730D02*
X313604D01*
X313781Y40738D01*
X315006Y38906D01*
X316838Y37681D01*
X317730Y37504D01*
Y41630D01*
D02*
G37*
%LPD*%
D10*
X260800Y100800D02*
D03*
D11*
X278300Y76300D02*
D03*
X273300D02*
D03*
X268300D02*
D03*
X263300D02*
D03*
X258300D02*
D03*
X253300D02*
D03*
X248300D02*
D03*
X243300D02*
D03*
Y125300D02*
D03*
X248300D02*
D03*
X253300D02*
D03*
X258300D02*
D03*
X263300D02*
D03*
X268300D02*
D03*
X273300D02*
D03*
X278300D02*
D03*
D12*
X236300Y83300D02*
D03*
Y88300D02*
D03*
Y93300D02*
D03*
Y98300D02*
D03*
Y103300D02*
D03*
Y108300D02*
D03*
Y113300D02*
D03*
Y118300D02*
D03*
X285300D02*
D03*
Y113300D02*
D03*
Y108300D02*
D03*
Y103300D02*
D03*
Y98300D02*
D03*
Y93300D02*
D03*
Y88300D02*
D03*
D13*
Y83300D02*
D03*
D14*
X420200Y149000D02*
D03*
Y134000D02*
D03*
X304500Y79400D02*
D03*
X318500D02*
D03*
X304500Y68400D02*
D03*
X318500D02*
D03*
X214400Y300500D02*
D03*
Y285500D02*
D03*
X265400D02*
D03*
Y300500D02*
D03*
X404200Y149000D02*
D03*
Y134000D02*
D03*
X261900Y223500D02*
D03*
Y238500D02*
D03*
X217800Y223500D02*
D03*
Y238500D02*
D03*
X261900Y177500D02*
D03*
Y192500D02*
D03*
X272500Y45800D02*
D03*
Y60800D02*
D03*
X288500Y60800D02*
D03*
Y45800D02*
D03*
X217800Y192500D02*
D03*
Y177500D02*
D03*
X433200Y180900D02*
D03*
Y165900D02*
D03*
D15*
X417700Y180400D02*
D03*
X402700D02*
D03*
X220700Y78800D02*
D03*
X205700D02*
D03*
X220700Y62800D02*
D03*
X205700D02*
D03*
X172400Y270000D02*
D03*
X157400D02*
D03*
X307300D02*
D03*
X322300D02*
D03*
X277400Y270000D02*
D03*
X292400D02*
D03*
X247400Y254000D02*
D03*
X262400D02*
D03*
X247400Y270000D02*
D03*
X262400D02*
D03*
X217300Y208000D02*
D03*
X232300D02*
D03*
X217300Y254000D02*
D03*
X232300D02*
D03*
X217300Y270000D02*
D03*
X232300D02*
D03*
X187300D02*
D03*
X202300D02*
D03*
X262400Y208000D02*
D03*
X247400D02*
D03*
X220800Y122000D02*
D03*
X205800D02*
D03*
X220800Y138000D02*
D03*
X205800D02*
D03*
X276200Y158900D02*
D03*
X291200D02*
D03*
X276200Y142900D02*
D03*
X291200D02*
D03*
X306200Y158900D02*
D03*
X321200D02*
D03*
X321200Y142900D02*
D03*
X306200D02*
D03*
X304000Y52900D02*
D03*
X319000D02*
D03*
X336100Y94900D02*
D03*
X351100D02*
D03*
X306100D02*
D03*
X321100D02*
D03*
X334000Y63000D02*
D03*
X349000D02*
D03*
X330900Y110900D02*
D03*
X345900D02*
D03*
X315900D02*
D03*
X300900D02*
D03*
X330900Y126900D02*
D03*
X345900D02*
D03*
X300900D02*
D03*
X315900D02*
D03*
X349000Y79000D02*
D03*
X334000D02*
D03*
D16*
X240000Y320000D02*
D03*
X226749D02*
D03*
X254501Y319999D02*
D03*
D34*
X442359Y338817D02*
G03*
X469859Y366317I0J27500D01*
G01*
X22359D02*
G03*
X37359Y351317I15000J0D01*
G01*
Y656318D02*
G03*
X22359Y641318I0J-15000D01*
G01*
X469859D02*
G03*
X442359Y668818I-27500J0D01*
G01*
X9859Y366317D02*
G03*
X37359Y338817I27500J0D01*
G01*
Y668818D02*
G03*
X9859Y641318I0J-27500D01*
G01*
X442359Y351317D02*
G03*
X457359Y366317I0J15000D01*
G01*
X34859D02*
G03*
X37359Y363817I2500J0D01*
G01*
X457359Y641318D02*
G03*
X442359Y656318I-15000J0D01*
G01*
X37359Y643818D02*
G03*
X34859Y641318I0J-2500D01*
G01*
X442359Y363817D02*
G03*
X444859Y366317I0J2500D01*
G01*
X444859Y641318D02*
G03*
X442359Y643818I-2500J0D01*
G01*
X240000Y320000D02*
Y338899D01*
Y319900D02*
Y320000D01*
X226749D02*
Y338809D01*
Y319900D02*
Y320000D01*
X469859Y366317D02*
Y641318D01*
X22359Y366317D02*
Y641318D01*
X37359Y656318D02*
X233769D01*
X246269Y668818D02*
X442359D01*
X233769Y656407D02*
X246179Y668818D01*
X246269D01*
X37359Y351317D02*
X225539D01*
X254520Y338817D02*
X442359D01*
X9859Y366317D02*
Y641318D01*
X37359Y668818D02*
X225519D01*
X37359Y338817D02*
X226768D01*
X457359Y366317D02*
Y641318D01*
X246224Y351317D02*
X442359D01*
X254429Y656497D02*
X442179D01*
X37359Y643727D02*
X225564D01*
X233724Y363613D02*
X233814D01*
X246224Y351203D01*
X34859Y366317D02*
Y641318D01*
X37564Y363613D02*
X233724D01*
X432359Y376317D02*
Y631317D01*
X47359Y376317D02*
X432359D01*
X47359D02*
Y631317D01*
X47449Y631408D02*
X233814D01*
X254474Y631317D02*
X432359D01*
X246224Y643818D02*
X443519D01*
X444859Y642477D01*
X246224Y643613D02*
X246314D01*
X233814Y631203D02*
X246224Y643613D01*
X444859Y366317D02*
Y642477D01*
X254589Y363817D02*
X442359D01*
X254501Y319899D02*
Y338809D01*
X441742Y180400D02*
X447600Y174542D01*
X417700Y180400D02*
X441742D01*
X447600Y107400D02*
Y174542D01*
Y107400D02*
X460000Y95000D01*
X217800Y223500D02*
X217800Y223500D01*
Y192500D02*
Y223500D01*
X254501Y311399D02*
X265400Y300500D01*
X254501Y311399D02*
Y319999D01*
X240000Y319900D02*
Y320000D01*
Y279700D02*
Y319900D01*
Y279700D02*
X240200Y279500D01*
X226749Y319900D02*
Y320000D01*
Y312849D02*
Y319900D01*
X214400Y300500D02*
X226749Y312849D01*
X261900Y192500D02*
Y223500D01*
D35*
X433200Y155071D02*
Y165900D01*
X432700Y154300D02*
Y154571D01*
X433200Y155071D01*
X238400Y198037D02*
Y208000D01*
X232300D02*
X238400D01*
X195429Y121530D02*
X195899Y122000D01*
X205800D01*
X195159Y121530D02*
X195429D01*
X194305Y78211D02*
X194576D01*
X195165Y78800D02*
X205700D01*
X194576Y78211D02*
X195165Y78800D01*
X205700Y62800D02*
Y78800D01*
X205800Y122000D02*
Y138000D01*
X157377Y257228D02*
X157400Y257251D01*
Y270000D01*
X238400Y208000D02*
X247400D01*
X322300Y270000D02*
X333202D01*
X247400Y254000D02*
Y270000D01*
Y241638D02*
Y254000D01*
X333202Y270000D02*
X333527Y270325D01*
X232300Y241200D02*
Y270000D01*
X246926Y241164D02*
X247400Y241638D01*
X232415Y241100D02*
X232490Y241175D01*
X232400Y241100D02*
X232415D01*
X232300Y241200D02*
X232400Y241100D01*
X240200Y279500D02*
X240500Y279800D01*
D36*
X420200Y84000D02*
Y134000D01*
X413000Y140700D02*
X419700Y134000D01*
X398846Y140700D02*
X413000D01*
X420200Y84000D02*
X460000Y44200D01*
X388100Y78342D02*
X447642Y18800D01*
X460000D01*
X248300Y76300D02*
Y88300D01*
X248800Y88800D01*
X260800D02*
X263300Y86300D01*
Y76300D02*
Y86300D01*
Y103300D02*
Y125300D01*
Y103300D02*
X268300Y108300D01*
X260800Y100800D02*
X263300Y103300D01*
X268300Y108300D02*
X285300D01*
X248800Y112800D02*
X260800Y100800D01*
X243300Y118300D02*
X248800Y112800D01*
X243300Y118300D02*
Y125300D01*
X246300Y98300D02*
X248800Y100800D01*
X236300Y98300D02*
X246300D01*
X257450Y58446D02*
X268104Y69100D01*
X257450Y40593D02*
X266080Y31962D01*
X254450Y59688D02*
X268300Y73538D01*
X254450Y39350D02*
X264837Y28963D01*
X257450Y40593D02*
Y58446D01*
X254450Y39350D02*
Y59688D01*
X383700Y125554D02*
X398846Y140700D01*
X419700Y134000D02*
X420200D01*
X264837Y28963D02*
X338720D01*
X266080Y31962D02*
X337478D01*
X338720Y28963D02*
X388100Y78342D01*
X337478Y31962D02*
X383700Y78185D01*
X388100Y78342D02*
Y121900D01*
X383700Y78185D02*
Y125554D01*
X403800Y133100D02*
X404700Y134000D01*
X399300Y133100D02*
X403800D01*
X388100Y121900D02*
X399300Y133100D01*
X268300Y73538D02*
Y76300D01*
X268104Y69100D02*
X273862D01*
X278300Y73538D01*
Y76300D01*
X318500Y79400D02*
X318900Y79000D01*
X334000D01*
X323932Y62150D02*
X324782Y63000D01*
X311250Y62150D02*
X323932D01*
X305000Y68400D02*
X311250Y62150D01*
X304500Y68400D02*
X305000D01*
X324782Y63000D02*
X334000D01*
X296850Y75368D02*
X299068Y73150D01*
X296850Y75368D02*
Y92961D01*
X292961Y96850D02*
X296850Y92961D01*
X294203Y99850D02*
X299850Y94203D01*
X299850Y88397D02*
X300729Y87518D01*
X309882D01*
X299850Y93755D02*
Y94203D01*
X299850Y88397D02*
Y93755D01*
X299850Y93755D02*
X299850Y93755D01*
X290986Y103051D02*
X294187Y99850D01*
X292944Y96850D02*
X292961D01*
X285300Y98300D02*
X291494D01*
X285300Y103300D02*
X285549Y103051D01*
X294187Y99850D02*
X294203D01*
X285549Y103051D02*
X290986D01*
X291494Y98300D02*
X292944Y96850D01*
X304000Y68400D02*
X304500D01*
X299250Y73150D02*
X304000Y68400D01*
X299068Y73150D02*
X299250D01*
X318000Y79400D02*
X318500D01*
X309882Y87518D02*
X318000Y79400D01*
D37*
X262700Y55900D02*
X267100D01*
X272000Y60800D01*
X272500D01*
X293700Y126900D02*
X300900D01*
X278300D02*
X292700D01*
Y127000D02*
X293700D01*
X277900Y135500D02*
X299300D01*
X273300Y125300D02*
Y130900D01*
X299300Y135500D02*
X306200Y142400D01*
X278300Y125300D02*
Y126900D01*
X273300Y130900D02*
X277900Y135500D01*
X300900Y126900D02*
Y127400D01*
X262600Y133500D02*
Y139200D01*
X330900Y110400D02*
Y110900D01*
X293420Y271020D02*
X294440Y270000D01*
X307800Y103500D02*
X324000D01*
X300900Y110400D02*
X307800Y103500D01*
X315899Y87500D02*
X329200D01*
X311599Y91800D02*
X315899Y87500D01*
X329200D02*
X334000Y92300D01*
X304500Y95900D02*
X308600Y91800D01*
X334000Y92300D02*
Y94900D01*
X308600Y91800D02*
X311599D01*
X300900Y110400D02*
Y111400D01*
X324000Y103500D02*
X330900Y110400D01*
X306200Y142900D02*
Y147400D01*
X220800Y122000D02*
Y137500D01*
X231400Y133800D02*
X231700Y134100D01*
X225000Y133800D02*
X231400D01*
X220800Y137500D02*
X223400Y134900D01*
X223900D01*
X225000Y133800D01*
X220800Y137500D02*
Y138000D01*
X268300Y132100D02*
X273600Y137400D01*
Y140300D01*
X276200Y142900D01*
X268300Y125300D02*
Y132100D01*
X276200Y142900D02*
Y158900D01*
X258300Y129200D02*
X262600Y133500D01*
X242300Y135500D02*
X248300Y129500D01*
X242300Y135500D02*
Y138100D01*
X248300Y125300D02*
Y129500D01*
X258300Y125300D02*
Y129200D01*
X253200Y136400D02*
X253300Y136300D01*
Y125300D02*
Y136300D01*
X220700Y62800D02*
Y78800D01*
Y79300D02*
X224700Y83300D01*
X236300D01*
X220700Y78800D02*
Y79300D01*
X306200Y142900D02*
X306200Y142900D01*
X289000Y60800D02*
X296600D01*
X288500D02*
X289000D01*
X296600D02*
X304000Y53400D01*
Y52900D02*
Y53400D01*
X285300Y73100D02*
Y83300D01*
X273000Y60800D02*
X285300Y73100D01*
X272500Y60800D02*
X273000D01*
X289000Y60800D02*
X291600Y63400D01*
Y63900D01*
X293200Y65500D01*
Y91000D01*
X290900Y93300D02*
X293200Y91000D01*
X285300Y93300D02*
X290900D01*
X295699Y103500D02*
X298000D01*
X294000Y105199D02*
X295699Y103500D01*
X294000Y105199D02*
Y108281D01*
X298000Y103500D02*
X304500Y97000D01*
Y95900D02*
Y97000D01*
X285300Y113300D02*
X288981D01*
X294000Y108281D01*
X330900Y110900D02*
Y111400D01*
X300900Y110900D02*
Y111400D01*
X323700Y134600D02*
X330900Y127400D01*
Y126900D02*
Y127400D01*
X308100Y134600D02*
X323700D01*
X300900Y127400D02*
X308100Y134600D01*
X285300Y118300D02*
X294000D01*
X300900Y111400D01*
X306200Y142400D02*
Y142900D01*
X172400Y270000D02*
X187300D01*
X294440Y270000D02*
X307300D01*
Y269500D02*
Y270000D01*
D38*
X291200Y158900D02*
Y169600D01*
Y142900D02*
Y158900D01*
X262600Y139200D02*
Y173957D01*
X262400Y174157D02*
X262600Y173957D01*
X262400Y174157D02*
Y177500D01*
X261900D02*
X262400D01*
X356550Y120750D02*
X368120Y132319D01*
X349000Y79000D02*
X359200D01*
X349000Y63000D02*
Y79000D01*
X359600Y103900D02*
Y109500D01*
X351100Y95400D02*
X359600Y103900D01*
X358200Y110900D02*
X359600Y109500D01*
X368120Y132319D02*
Y135820D01*
X345900Y110900D02*
X358200D01*
X315900D02*
Y111400D01*
X321400Y116900D01*
Y117678D01*
X322300Y118578D01*
Y118800D01*
X315900Y126400D02*
Y126900D01*
Y126400D02*
X320900Y121400D01*
X321400Y119700D02*
Y121400D01*
Y119700D02*
X322300Y118800D01*
X320900Y121400D02*
X321400D01*
X345800Y138600D02*
X345900Y138500D01*
Y126900D02*
Y138500D01*
X321200Y158900D02*
X330500D01*
X321200Y158400D02*
Y158900D01*
X321200Y142900D02*
Y158400D01*
X321200Y158400D01*
X403700Y149000D02*
X404200D01*
X381300D02*
X403700D01*
X368120Y135820D02*
X381300Y149000D01*
X306200Y147400D02*
Y158900D01*
Y166700D01*
X319900Y180400D01*
X402700D01*
X404200Y149000D02*
X420200D01*
X402700Y150000D02*
X403700Y149000D01*
X402700Y150000D02*
Y180400D01*
X217800Y162600D02*
Y177500D01*
Y162600D02*
X242300Y138100D01*
X265400Y270000D02*
Y285500D01*
Y241500D02*
Y270000D01*
X277400D01*
X262400Y238500D02*
X265400Y241500D01*
X261900Y238500D02*
X262400D01*
X214400Y270000D02*
Y285500D01*
Y241400D02*
Y270000D01*
X217300D01*
X202300D02*
X214400D01*
Y241400D02*
X217300Y238500D01*
X217800D01*
X214400Y300500D02*
X214498D01*
D39*
X223200Y103600D02*
X223500Y103300D01*
X236300D01*
D40*
X184580Y108770D02*
Y226430D01*
Y108770D02*
X205050Y88300D01*
X184580Y226430D02*
X187300Y229150D01*
X188080Y224980D02*
X194400Y231300D01*
X188080Y110220D02*
X205000Y93300D01*
X188080Y110220D02*
Y224980D01*
X292400Y250300D02*
Y270000D01*
X273400Y231300D02*
X292400Y250300D01*
X194400Y231300D02*
X273400D01*
X187300Y229150D02*
Y270000D01*
X205050Y88300D02*
X236300D01*
X205000Y93300D02*
X236300D01*
D41*
X280500Y45800D02*
X288500D01*
X272500D02*
X280500D01*
Y38500D02*
X280900Y38100D01*
X280500Y38500D02*
Y45800D01*
X288500D02*
X288500Y45800D01*
X319000Y42900D02*
Y52900D01*
X322500Y94900D02*
Y96800D01*
X343600Y102900D02*
X351100Y95400D01*
X322500Y96800D02*
X323100Y97400D01*
X325150D01*
X330650Y102900D01*
X343600D01*
X321100Y94900D02*
X322500D01*
X338400Y118900D02*
X354700D01*
X330900Y111400D02*
X338400Y118900D01*
D42*
X265400Y300500D02*
X265500Y300600D01*
D43*
X467400Y117500D02*
X460402D01*
X467400Y122165D01*
X460402D01*
X467400Y124498D02*
X462735D01*
X460402Y126830D01*
X462735Y129163D01*
X467400D01*
X463901D01*
Y124498D01*
X460402Y131496D02*
X467400D01*
Y134994D01*
X466234Y136161D01*
X465067D01*
X463901Y134994D01*
Y131496D01*
Y134994D01*
X462735Y136161D01*
X461568D01*
X460402Y134994D01*
Y131496D01*
X467400Y138493D02*
X462735D01*
X460402Y140826D01*
X462735Y143158D01*
X467400D01*
X463901D01*
Y138493D01*
X460402Y145491D02*
Y150156D01*
X461568D01*
X466234Y145491D01*
X467400D01*
Y150156D01*
X460402Y152489D02*
Y157154D01*
Y154821D01*
X467400D01*
Y159487D02*
X462735D01*
X460402Y161819D01*
X462735Y164152D01*
X467400D01*
X463901D01*
Y159487D01*
X461568Y171149D02*
X460402Y169983D01*
Y167651D01*
X461568Y166484D01*
X466234D01*
X467400Y167651D01*
Y169983D01*
X466234Y171149D01*
X463901D01*
Y168817D01*
X468566Y173482D02*
Y178147D01*
X467400Y180480D02*
X460402D01*
Y183979D01*
X461568Y185145D01*
X463901D01*
X465067Y183979D01*
Y180480D01*
Y182812D02*
X467400Y185145D01*
X460402Y192143D02*
Y187477D01*
X463901D01*
Y189810D01*
Y187477D01*
X467400D01*
X460402Y194475D02*
Y196808D01*
Y195641D01*
X467400D01*
Y194475D01*
Y196808D01*
X460402Y200307D02*
X467400D01*
Y203806D01*
X466234Y204972D01*
X461568D01*
X460402Y203806D01*
Y200307D01*
X468566Y207304D02*
Y211970D01*
X461568Y218967D02*
X460402Y217801D01*
Y215469D01*
X461568Y214302D01*
X462735D01*
X463901Y215469D01*
Y217801D01*
X465067Y218967D01*
X466234D01*
X467400Y217801D01*
Y215469D01*
X466234Y214302D01*
X460402Y221300D02*
Y225965D01*
Y223633D01*
X467400D01*
Y232963D02*
Y228298D01*
X462735Y232963D01*
X461568D01*
X460402Y231797D01*
Y229464D01*
X461568Y228298D01*
X460402Y239961D02*
Y235296D01*
X463901D01*
X462735Y237628D01*
Y238794D01*
X463901Y239961D01*
X466234D01*
X467400Y238794D01*
Y236462D01*
X466234Y235296D01*
X467400Y242293D02*
X460402D01*
Y245792D01*
X461568Y246958D01*
X463901D01*
X465067Y245792D01*
Y242293D01*
Y244626D02*
X467400Y246958D01*
X468566Y249291D02*
Y253956D01*
X462735Y256289D02*
X467400Y258621D01*
X462735Y260954D01*
X467400Y263286D02*
Y265619D01*
Y264453D01*
X460402D01*
X461568Y263286D01*
X467400Y269118D02*
X466234D01*
Y270284D01*
X467400D01*
Y269118D01*
Y274949D02*
Y277282D01*
Y276116D01*
X460402D01*
X461568Y274949D01*
D44*
X460000Y18800D02*
D03*
Y44200D02*
D03*
Y69600D02*
D03*
D45*
Y95000D02*
D03*
D46*
X240022Y338908D02*
D03*
X225562Y351288D02*
D03*
X240022Y376318D02*
D03*
X254472Y363698D02*
D03*
X254432Y631288D02*
D03*
X225522Y643698D02*
D03*
X254432Y656498D02*
D03*
X225522Y668908D02*
D03*
D47*
X260800Y100800D02*
D03*
X248800Y112800D02*
D03*
X260800D02*
D03*
X272800D02*
D03*
X248800Y100800D02*
D03*
X272800D02*
D03*
X248800Y88800D02*
D03*
X260800D02*
D03*
X272800D02*
D03*
D48*
X432700Y154300D02*
D03*
X262700Y55900D02*
D03*
X292700Y127000D02*
D03*
X356800Y120500D02*
D03*
X223200Y103600D02*
D03*
X238400Y198037D02*
D03*
X195159Y121530D02*
D03*
X194305Y78211D02*
D03*
X280900Y38100D02*
D03*
X319000Y42900D02*
D03*
X359200Y79000D02*
D03*
X359600Y109500D02*
D03*
X322300Y118800D02*
D03*
X345800Y138600D02*
D03*
X330500Y158900D02*
D03*
X291200Y169600D02*
D03*
X231700Y134100D02*
D03*
X253200Y136400D02*
D03*
X157377Y257228D02*
D03*
X333527Y270325D02*
D03*
X246926Y241164D02*
D03*
X232490Y241175D02*
D03*
X240200Y279500D02*
D03*
M02*
