G04*
G04 #@! TF.GenerationSoftware,Altium Limited,Altium Designer,21.3.2 (30)*
G04*
G04 Layer_Color=16711935*
%FSLAX44Y44*%
%MOMM*%
G71*
G04*
G04 #@! TF.SameCoordinates,C0BB7E1C-5EEE-4355-A842-C900462BBBA7*
G04*
G04*
G04 #@! TF.FilePolarity,Negative*
G04*
G01*
G75*
%ADD21R,3.6540X3.6540*%
%ADD28C,1.7040*%
%ADD29R,1.7040X1.7040*%
%ADD30C,1.1600*%
%ADD31C,0.2040*%
%ADD32C,0.8640*%
%ADD33C,0.8040*%
D21*
X260800Y100800D02*
D03*
D28*
X460000Y18800D02*
D03*
Y44200D02*
D03*
Y69600D02*
D03*
D29*
Y95000D02*
D03*
D30*
X240022Y338908D02*
D03*
X225562Y351288D02*
D03*
X240022Y376318D02*
D03*
X254472Y363698D02*
D03*
X254432Y631288D02*
D03*
X225522Y643698D02*
D03*
X254432Y656498D02*
D03*
X225522Y668908D02*
D03*
D31*
X384000Y32000D02*
D03*
X96000D02*
D03*
D32*
X260800Y100800D02*
D03*
X248800Y112800D02*
D03*
X260800D02*
D03*
X272800D02*
D03*
X248800Y100800D02*
D03*
X272800D02*
D03*
X248800Y88800D02*
D03*
X260800D02*
D03*
X272800D02*
D03*
D33*
X432700Y154300D02*
D03*
X262700Y55900D02*
D03*
X292700Y127000D02*
D03*
X356800Y120500D02*
D03*
X223200Y103600D02*
D03*
X238400Y198037D02*
D03*
X195159Y121530D02*
D03*
X194305Y78211D02*
D03*
X280900Y38100D02*
D03*
X319000Y42900D02*
D03*
X359200Y79000D02*
D03*
X359600Y109500D02*
D03*
X322300Y118800D02*
D03*
X345800Y138600D02*
D03*
X330500Y158900D02*
D03*
X291200Y169600D02*
D03*
X231700Y134100D02*
D03*
X253200Y136400D02*
D03*
X157377Y257228D02*
D03*
X333527Y270325D02*
D03*
X246926Y241164D02*
D03*
X232490Y241175D02*
D03*
X240200Y279500D02*
D03*
M02*
