G04*
G04 #@! TF.GenerationSoftware,Altium Limited,Altium Designer,21.3.2 (30)*
G04*
G04 Layer_Color=2752767*
%FSLAX44Y44*%
%MOMM*%
G71*
G04*
G04 #@! TF.SameCoordinates,C0BB7E1C-5EEE-4355-A842-C900462BBBA7*
G04*
G04*
G04 #@! TF.FilePolarity,Positive*
G04*
G01*
G75*
%ADD50C,0.1270*%
%ADD51C,0.1693*%
D50*
X454920Y13720D02*
Y23880D01*
X465080D01*
Y13720D01*
X454920D01*
Y39120D02*
Y49280D01*
X465080D01*
Y39120D01*
X454920D01*
Y64520D02*
Y74680D01*
X465080D01*
Y64520D01*
X454920D01*
Y89920D02*
Y100080D01*
X465080D01*
Y89920D01*
X454920D01*
X384000Y26920D02*
X378920Y37080D01*
X389080D01*
X384000Y26920D01*
X96000D02*
X90920Y37080D01*
X101080D01*
X96000Y26920D01*
X260800Y95720D02*
X263340Y98260D01*
X265880D01*
X263340Y100800D01*
X265880Y103340D01*
X263340D01*
X260800Y105880D01*
X258260Y103340D01*
X255720D01*
X258260Y100800D01*
X255720Y98260D01*
X258260D01*
X260800Y95720D01*
X248800Y107720D02*
X251340Y110260D01*
X253880D01*
X251340Y112800D01*
X253880Y115340D01*
X251340D01*
X248800Y117880D01*
X246260Y115340D01*
X243720D01*
X246260Y112800D01*
X243720Y110260D01*
X246260D01*
X248800Y107720D01*
X260800D02*
X263340Y110260D01*
X265880D01*
X263340Y112800D01*
X265880Y115340D01*
X263340D01*
X260800Y117880D01*
X258260Y115340D01*
X255720D01*
X258260Y112800D01*
X255720Y110260D01*
X258260D01*
X260800Y107720D01*
X272800D02*
X275340Y110260D01*
X277880D01*
X275340Y112800D01*
X277880Y115340D01*
X275340D01*
X272800Y117880D01*
X270260Y115340D01*
X267720D01*
X270260Y112800D01*
X267720Y110260D01*
X270260D01*
X272800Y107720D01*
X248800Y95720D02*
X251340Y98260D01*
X253880D01*
X251340Y100800D01*
X253880Y103340D01*
X251340D01*
X248800Y105880D01*
X246260Y103340D01*
X243720D01*
X246260Y100800D01*
X243720Y98260D01*
X246260D01*
X248800Y95720D01*
X272800D02*
X275340Y98260D01*
X277880D01*
X275340Y100800D01*
X277880Y103340D01*
X275340D01*
X272800Y105880D01*
X270260Y103340D01*
X267720D01*
X270260Y100800D01*
X267720Y98260D01*
X270260D01*
X272800Y95720D01*
X248800Y83720D02*
X251340Y86260D01*
X253880D01*
X251340Y88800D01*
X253880Y91340D01*
X251340D01*
X248800Y93880D01*
X246260Y91340D01*
X243720D01*
X246260Y88800D01*
X243720Y86260D01*
X246260D01*
X248800Y83720D01*
X260800D02*
X263340Y86260D01*
X265880D01*
X263340Y88800D01*
X265880Y91340D01*
X263340D01*
X260800Y93880D01*
X258260Y91340D01*
X255720D01*
X258260Y88800D01*
X255720Y86260D01*
X258260D01*
X260800Y83720D01*
X272800D02*
X275340Y86260D01*
X277880D01*
X275340Y88800D01*
X277880Y91340D01*
X275340D01*
X272800Y93880D01*
X270260Y91340D01*
X267720D01*
X270260Y88800D01*
X267720Y86260D01*
X270260D01*
X272800Y83720D01*
X427620Y149220D02*
X430160Y154300D01*
X427620Y159380D01*
X432700Y156840D01*
X437780Y159380D01*
X435240Y154300D01*
X437780Y149220D01*
X432700Y151760D01*
X427620Y149220D01*
X257620Y50820D02*
X260160Y55900D01*
X257620Y60980D01*
X262700Y58440D01*
X267780Y60980D01*
X265240Y55900D01*
X267780Y50820D01*
X262700Y53360D01*
X257620Y50820D01*
X287620Y121920D02*
X290160Y127000D01*
X287620Y132080D01*
X292700Y129540D01*
X297780Y132080D01*
X295240Y127000D01*
X297780Y121920D01*
X292700Y124460D01*
X287620Y121920D01*
X351720Y115420D02*
X354260Y120500D01*
X351720Y125580D01*
X356800Y123040D01*
X361880Y125580D01*
X359340Y120500D01*
X361880Y115420D01*
X356800Y117960D01*
X351720Y115420D01*
X218120Y98520D02*
X220660Y103600D01*
X218120Y108680D01*
X223200Y106140D01*
X228280Y108680D01*
X225740Y103600D01*
X228280Y98520D01*
X223200Y101060D01*
X218120Y98520D01*
X233320Y192957D02*
X235860Y198037D01*
X233320Y203117D01*
X238400Y200577D01*
X243480Y203117D01*
X240940Y198037D01*
X243480Y192957D01*
X238400Y195497D01*
X233320Y192957D01*
X190079Y116450D02*
X192619Y121530D01*
X190079Y126610D01*
X195159Y124070D01*
X200239Y126610D01*
X197699Y121530D01*
X200239Y116450D01*
X195159Y118990D01*
X190079Y116450D01*
X189225Y73130D02*
X191765Y78211D01*
X189225Y83291D01*
X194305Y80751D01*
X199385Y83291D01*
X196845Y78211D01*
X199385Y73130D01*
X194305Y75670D01*
X189225Y73130D01*
X275820Y33020D02*
X278360Y38100D01*
X275820Y43180D01*
X280900Y40640D01*
X285980Y43180D01*
X283440Y38100D01*
X285980Y33020D01*
X280900Y35560D01*
X275820Y33020D01*
X313920Y37820D02*
X316460Y42900D01*
X313920Y47980D01*
X319000Y45440D01*
X324080Y47980D01*
X321540Y42900D01*
X324080Y37820D01*
X319000Y40360D01*
X313920Y37820D01*
X354120Y73920D02*
X356660Y79000D01*
X354120Y84080D01*
X359200Y81540D01*
X364280Y84080D01*
X361740Y79000D01*
X364280Y73920D01*
X359200Y76460D01*
X354120Y73920D01*
X354520Y104420D02*
X357060Y109500D01*
X354520Y114580D01*
X359600Y112040D01*
X364680Y114580D01*
X362140Y109500D01*
X364680Y104420D01*
X359600Y106960D01*
X354520Y104420D01*
X317220Y113720D02*
X319760Y118800D01*
X317220Y123880D01*
X322300Y121340D01*
X327380Y123880D01*
X324840Y118800D01*
X327380Y113720D01*
X322300Y116260D01*
X317220Y113720D01*
X340720Y133520D02*
X343260Y138600D01*
X340720Y143680D01*
X345800Y141140D01*
X350880Y143680D01*
X348340Y138600D01*
X350880Y133520D01*
X345800Y136060D01*
X340720Y133520D01*
X325420Y153820D02*
X327960Y158900D01*
X325420Y163980D01*
X330500Y161440D01*
X335580Y163980D01*
X333040Y158900D01*
X335580Y153820D01*
X330500Y156360D01*
X325420Y153820D01*
X286120Y164520D02*
X288660Y169600D01*
X286120Y174680D01*
X291200Y172140D01*
X296280Y174680D01*
X293740Y169600D01*
X296280Y164520D01*
X291200Y167060D01*
X286120Y164520D01*
X226620Y129020D02*
X229160Y134100D01*
X226620Y139180D01*
X231700Y136640D01*
X236780Y139180D01*
X234240Y134100D01*
X236780Y129020D01*
X231700Y131560D01*
X226620Y129020D01*
X248120Y131320D02*
X250660Y136400D01*
X248120Y141480D01*
X253200Y138940D01*
X258280Y141480D01*
X255740Y136400D01*
X258280Y131320D01*
X253200Y133860D01*
X248120Y131320D01*
X152297Y252148D02*
X154837Y257228D01*
X152297Y262308D01*
X157377Y259768D01*
X162457Y262308D01*
X159917Y257228D01*
X162457Y252148D01*
X157377Y254688D01*
X152297Y252148D01*
X328447Y265245D02*
X330987Y270325D01*
X328447Y275405D01*
X333527Y272865D01*
X338607Y275405D01*
X336067Y270325D01*
X338607Y265245D01*
X333527Y267785D01*
X328447Y265245D01*
X241846Y236084D02*
X244386Y241164D01*
X241846Y246244D01*
X246926Y243704D01*
X252006Y246244D01*
X249466Y241164D01*
X252006Y236084D01*
X246926Y238624D01*
X241846Y236084D01*
X227410Y236095D02*
X229950Y241175D01*
X227410Y246255D01*
X232490Y243715D01*
X237570Y246255D01*
X235030Y241175D01*
X237570Y236095D01*
X232490Y238635D01*
X227410Y236095D01*
X235120Y274420D02*
X237660Y279500D01*
X235120Y284580D01*
X240200Y282040D01*
X245280Y284580D01*
X242740Y279500D01*
X245280Y274420D01*
X240200Y276960D01*
X235120Y274420D01*
D51*
X245102Y338908D02*
G03*
X245102Y338908I-5080J0D01*
G01*
X230642Y351288D02*
G03*
X230642Y351288I-5080J0D01*
G01*
X245102Y376318D02*
G03*
X245102Y376318I-5080J0D01*
G01*
X259552Y363698D02*
G03*
X259552Y363698I-5080J0D01*
G01*
X259512Y631288D02*
G03*
X259512Y631288I-5080J0D01*
G01*
X230602Y643698D02*
G03*
X230602Y643698I-5080J0D01*
G01*
X259512Y656498D02*
G03*
X259512Y656498I-5080J0D01*
G01*
X230602Y668908D02*
G03*
X230602Y668908I-5080J0D01*
G01*
M02*
