G04*
G04 #@! TF.GenerationSoftware,Altium Limited,Altium Designer,21.3.2 (30)*
G04*
G04 Layer_Color=8388736*
%FSLAX44Y44*%
%MOMM*%
G71*
G04*
G04 #@! TF.SameCoordinates,C0BB7E1C-5EEE-4355-A842-C900462BBBA7*
G04*
G04*
G04 #@! TF.FilePolarity,Negative*
G04*
G01*
G75*
%ADD17C,3.5000*%
%ADD18R,3.9800X0.8000*%
%ADD19R,3.9800X0.8000*%
%ADD20R,0.8000X3.9800*%
%ADD21R,3.6540X3.6540*%
%ADD22O,0.4840X1.0040*%
%ADD23O,1.0040X0.4840*%
%ADD24R,1.0040X0.4840*%
%ADD25R,1.0600X0.9600*%
%ADD26R,0.9600X1.0600*%
%ADD27R,1.2040X1.2040*%
%ADD28C,1.7040*%
%ADD29R,1.7040X1.7040*%
%ADD30C,1.1600*%
%ADD31C,0.2040*%
%ADD32C,0.8640*%
%ADD33C,0.8040*%
D17*
X384000Y32000D02*
D03*
X96000D02*
D03*
D18*
X260800Y76300D02*
D03*
D19*
X260900Y125300D02*
D03*
D20*
X236300Y100800D02*
D03*
X285300D02*
D03*
D21*
X260800Y100800D02*
D03*
D22*
X278300Y76300D02*
D03*
X273300D02*
D03*
X268300D02*
D03*
X263300D02*
D03*
X258300D02*
D03*
X253300D02*
D03*
X248300D02*
D03*
X243300D02*
D03*
Y125300D02*
D03*
X248300D02*
D03*
X253300D02*
D03*
X258300D02*
D03*
X263300D02*
D03*
X268300D02*
D03*
X273300D02*
D03*
X278300D02*
D03*
D23*
X236300Y83300D02*
D03*
Y88300D02*
D03*
Y93300D02*
D03*
Y98300D02*
D03*
Y103300D02*
D03*
Y108300D02*
D03*
Y113300D02*
D03*
Y118300D02*
D03*
X285300D02*
D03*
Y113300D02*
D03*
Y108300D02*
D03*
Y103300D02*
D03*
Y98300D02*
D03*
Y93300D02*
D03*
Y88300D02*
D03*
D24*
Y83300D02*
D03*
D25*
X420200Y149000D02*
D03*
Y134000D02*
D03*
X304500Y79400D02*
D03*
X318500D02*
D03*
X304500Y68400D02*
D03*
X318500D02*
D03*
X214400Y300500D02*
D03*
Y285500D02*
D03*
X265400D02*
D03*
Y300500D02*
D03*
X404200Y149000D02*
D03*
Y134000D02*
D03*
X261900Y223500D02*
D03*
Y238500D02*
D03*
X217800Y223500D02*
D03*
Y238500D02*
D03*
X261900Y177500D02*
D03*
Y192500D02*
D03*
X272500Y45800D02*
D03*
Y60800D02*
D03*
X288500Y60800D02*
D03*
Y45800D02*
D03*
X217800Y192500D02*
D03*
Y177500D02*
D03*
X433200Y180900D02*
D03*
Y165900D02*
D03*
D26*
X417700Y180400D02*
D03*
X402700D02*
D03*
X220700Y78800D02*
D03*
X205700D02*
D03*
X220700Y62800D02*
D03*
X205700D02*
D03*
X172400Y270000D02*
D03*
X157400D02*
D03*
X307300D02*
D03*
X322300D02*
D03*
X277400Y270000D02*
D03*
X292400D02*
D03*
X247400Y254000D02*
D03*
X262400D02*
D03*
X247400Y270000D02*
D03*
X262400D02*
D03*
X217300Y208000D02*
D03*
X232300D02*
D03*
X217300Y254000D02*
D03*
X232300D02*
D03*
X217300Y270000D02*
D03*
X232300D02*
D03*
X187300D02*
D03*
X202300D02*
D03*
X262400Y208000D02*
D03*
X247400D02*
D03*
X220800Y122000D02*
D03*
X205800D02*
D03*
X220800Y138000D02*
D03*
X205800D02*
D03*
X276200Y158900D02*
D03*
X291200D02*
D03*
X276200Y142900D02*
D03*
X291200D02*
D03*
X306200Y158900D02*
D03*
X321200D02*
D03*
X321200Y142900D02*
D03*
X306200D02*
D03*
X304000Y52900D02*
D03*
X319000D02*
D03*
X336100Y94900D02*
D03*
X351100D02*
D03*
X306100D02*
D03*
X321100D02*
D03*
X334000Y63000D02*
D03*
X349000D02*
D03*
X330900Y110900D02*
D03*
X345900D02*
D03*
X315900D02*
D03*
X300900D02*
D03*
X330900Y126900D02*
D03*
X345900D02*
D03*
X300900D02*
D03*
X315900D02*
D03*
X349000Y79000D02*
D03*
X334000D02*
D03*
D27*
X240000Y320000D02*
D03*
X226749D02*
D03*
X254501Y319999D02*
D03*
D28*
X460000Y18800D02*
D03*
Y44200D02*
D03*
Y69600D02*
D03*
D29*
Y95000D02*
D03*
D30*
X240022Y338908D02*
D03*
X225562Y351288D02*
D03*
X240022Y376318D02*
D03*
X254472Y363698D02*
D03*
X254432Y631288D02*
D03*
X225522Y643698D02*
D03*
X254432Y656498D02*
D03*
X225522Y668908D02*
D03*
D31*
X384000Y32000D02*
D03*
X96000D02*
D03*
D32*
X260800Y100800D02*
D03*
X248800Y112800D02*
D03*
X260800D02*
D03*
X272800D02*
D03*
X248800Y100800D02*
D03*
X272800D02*
D03*
X248800Y88800D02*
D03*
X260800D02*
D03*
X272800D02*
D03*
D33*
X432700Y154300D02*
D03*
X262700Y55900D02*
D03*
X292700Y127000D02*
D03*
X356800Y120500D02*
D03*
X223200Y103600D02*
D03*
X238400Y198037D02*
D03*
X195159Y121530D02*
D03*
X194305Y78211D02*
D03*
X280900Y38100D02*
D03*
X319000Y42900D02*
D03*
X359200Y79000D02*
D03*
X359600Y109500D02*
D03*
X322300Y118800D02*
D03*
X345800Y138600D02*
D03*
X330500Y158900D02*
D03*
X291200Y169600D02*
D03*
X231700Y134100D02*
D03*
X253200Y136400D02*
D03*
X157377Y257228D02*
D03*
X333527Y270325D02*
D03*
X246926Y241164D02*
D03*
X232490Y241175D02*
D03*
X240200Y279500D02*
D03*
M02*
