M48
;Layer_Color=9474304
;FILE_FORMAT=4:4
METRIC,LZ
;TYPE=PLATED
T1F00S00C0.2000
T2F00S00C0.2540
T3F00S00C0.3000
T4F00S00C0.4064
T5F00S00C0.5000
T6F00S00C0.9000
T7F00S00C1.2000
;TYPE=NON_PLATED
T8F00S00C2.5000
T9F00S00C2.6000
T10F00S00C4.0000
%
T01
X0052125Y001015
Y001125
X0053225
X0054325
Y001015
X0053225
Y001235
X0054325
X0052125
X0015075Y00114841
Y00103841
X0013975
Y00114841
T02
X0016995Y0002758
X0018995
X0020995
X0022995
X0024995
X0026995
X0028995
X0030995
X0032995
X0034995
X0036995
X0038995
Y0006758
X0036995
X0034995
X0032995
X0030995
X0028995
X0026995
X0024995
X0022995
X0020995
X0016995
X0040995Y0002758
X0042995
X00447Y0004715
X0045532Y00056122
X0046995Y0006758
X0056995Y0002758
X0058995
X0060995
X00629951
X00649951
X00659951Y0004758
X00639951
X00619951
X0059995
X00669951Y0006758
X00689951
X00699951Y0008758
X00679951
X00669951Y0010758
X00649951
X00639951Y0008758
X0060995Y0010758
X0059725Y00117
X0059Y001235
X0058995Y0018758
X0060995
X00629951
X00649951
X00659951Y0016758
X0067875Y0013775
X00679951Y0012758
X0052975Y0014275
X00515031Y0014325
X0046995Y0014758
X0045375Y0014625
X00454Y0013575
X0042975Y00136
X0042995Y0010758
X0043995Y0008758
X0049995
X0045995Y0016758
X00438432Y0017775
X0042995Y0018758
X0042725Y00252
X00398925Y00314785
X00483861Y0028925
X00500361
X00516861
X0052995Y0018758
X0056995
X00620682Y00359818
X0038325Y00324
X00305Y00312
X002975Y003025
X00325686Y00280326
X0022425Y0026725
X0021675Y0031325
X0021625Y003495
X0026675Y003595
Y003985
X0018075Y0038775
X001475Y003895
Y003985
X00038262Y00481
X0003995Y0016758
X0005995
X0009995
X0010995Y0018758
X0008995
X0014995
X0016995
X0018995
X0020995
X0021995Y0016758
X0023995
X0025995
X0027995
X0028995Y0014758
X0026995
Y0018758
X0024995
X0019995Y0016758
X0017995
X0015995
X001475Y00160676
X0016995Y0014758
X00117028Y00154105
X0019995Y0008758
X0021995
X0023995
X0025995
X0027995
X0029995
X0031995
X0033995
X00348226Y00095763
X0035995Y0008758
X0037995
X00326682Y00109577
X0029995Y0012758
X0026995Y0010758
X0038995Y0018758
X0039045Y0053758
Y0057158
Y00605579
X0037345
X0035825Y0061925
Y006245
X0035
Y0061925
X0034175Y00619
Y006245
X0034Y0058375
Y0057825
X00346Y005785
Y0058375
X0035225
Y005785
X0034795Y0055458
X0033095
X0031395
Y0048658
X0033095
X0029695
X0027995
Y0052058
X0024595
X0022895
X0021195
X0022045Y0053758
X0021195Y0048658
X0022895
X0024595
X0022895Y00622579
X0021195
X0022045Y0063958
X0022895Y0065658
X0026295
X0029695
X0030545Y0063958
X0028845
X0027995Y00622579
X00289Y00676
X0032275Y0067225
X0034875Y0073975
X0039Y00812
X0030075Y008275
X002795Y0081125
X001545Y007705
X0014825Y00611
X0007225Y0063925
X00068Y0064875
X0001825Y00585
X0040745Y0057158
Y00605579
X0043295Y00622579
X0044995
X0046695
X0048395
X0050095
X0050945Y00605579
X00492449
X00475449
X0045845
X0044995Y00588579
X0046695
X0045845Y0057158
X0046695Y0055458
X00475449Y0053758
X00492449
X0050945
X0052645
X0054345
X00534949Y0055458
X00517949
Y00588579
X0050095
X0055195
X0056895
X00560449Y00605579
Y0057158
X0055195Y0052058
X00534949
X00517949
X0050095
X0048395
Y0048658
X0050095
X00517949
X00534949
X0055195
X0056895
X00560449Y0050358
X0054345
X00619949Y0052058
X006245Y006025
Y0060975
X00619949Y00622579
X0062845Y0063958
X0045845
X0044995Y0065658
X00466431Y00794954
X00486Y00799
X004845Y007875
X00508452Y00793548
X00513065Y00788935
X00546277Y00796039
X005465Y008305
X0051875Y0082475
X0051225Y008305
X00405Y0079825
X0040745Y0053758
X0039895Y0052058
X004225Y0052075
X0042275Y005075
X0044995Y0048658
X0047325Y011275
X0053125Y0107675
X005415Y01075
X0022975Y01147
T03
X00536Y0037725
X0027675Y003775
X002855Y00208
X0023475Y001945
X00235Y0017875
X00034171Y0038975
X00035Y0049925
X004335Y00799
T04
X00116295Y0007
X0017296Y00080916
X004135Y00058
X00394732Y00335
X0031575Y0034475
X0032475Y00311642
X001865Y00128563
X00169984Y00137154
X00129006Y00154257
X000975Y0014275
X001895Y00085626
X00606Y0063465
X00598239Y00653261
X00104462Y01040301
X0009559Y01060191
T05
X00146566Y0002425
X00485431Y00082
X0049625Y0011
X00229Y00835
X0020175Y008625
X003945Y01004
X0041825Y010565
X003745Y01004
X003545
X003345
X003145
X003085Y00972
Y0095925
X0030875Y0094025
Y009275
X0032875
Y0094025
X003285Y0095925
Y00972
X003485
Y0095925
X0034875Y0094025
Y009275
X0036875
Y0094025
X003685Y0095925
Y00972
X003885
Y0095925
X0038875Y0094025
Y009275
X0036975Y00893
X003825Y008795
X0031975
X0032975Y00893
X0030975
T06
X006302Y002334
Y002588
Y002842
X000785Y0028935
Y0031475
Y002285
Y002031
Y001777
X00062Y00122
Y000966
X000975Y0009787
Y0012327
X0007924Y0054035
Y0056575
X0007874Y0066929
Y0069469
Y0072009
Y0074549
Y0077089
Y0079629
Y0082169
Y0084709
X00053
Y0082169
Y0079629
Y0077089
Y0074549
Y0072009
X001125Y0072175
Y0069635
X001379
Y0072175
X001633
Y0069635
X001887
Y0072175
X002141
Y0069635
X002395
Y0072175
X002649
Y0069635
X002903
Y0072175
X003157
Y0069635
X003411
Y0072175
X003665
Y0069635
X003919
Y0072175
X004173
Y0069635
X004427
Y0072175
X004681
Y0069635
X004935
Y0072175
X005189
Y0069635
X005443
Y0072175
X005697
Y0069635
X005951
Y0072175
X0063373Y0072009
Y0069469
Y0066929
Y0074549
Y0077089
Y0079629
Y0082169
Y0084709
X0065925
Y0082169
Y0079629
Y0077089
Y0074549
Y0072009
X0063332Y00569292
Y00543892
Y00518492
Y0096925
Y0099465
Y0102005
Y0104545
X004371Y009878
X004117
Y009116
X004371
X003863
X003609
X003355
X003101
X002847
X002593
Y009878
X002847
X003101
X003355
X003609
X003863
X0007924Y009754
Y010008
Y010262
X000535Y0103575
Y0101035
Y0106115
X0007924Y0095
T07
X0015245Y0101425
X0025705
T08
X00356004Y01036004
Y01111004
T09
X00031004Y00031004
X00681003
X00559004Y00422504
X00606004Y00481004
X00356004
Y00406004
Y00183603
X00393503Y00146004
X00318504
X00106004Y00406004
Y00481004
X00681003Y01141004
X00031004
T10
X0021Y00565
X0035Y00875
X0049Y00565
M30
