G04*
G04 #@! TF.GenerationSoftware,Altium Limited,Altium Designer,19.1.7 (138)*
G04*
G04 Layer_Color=255*
%FSLAX44Y44*%
%MOMM*%
G71*
G01*
G75*
%ADD19R,0.2500X0.3500*%
%ADD20R,0.3500X0.2500*%
%ADD21R,0.9500X1.0000*%
%ADD22R,2.4000X1.0000*%
%ADD23R,2.4000X3.3000*%
%ADD24R,1.0000X0.9500*%
%ADD25O,0.9000X0.3000*%
%ADD26O,0.3000X0.9000*%
%ADD27R,2.1300X2.1300*%
%ADD28R,0.6350X1.2700*%
%ADD29C,0.8000*%
%ADD30R,1.0000X0.9500*%
%ADD31R,0.8500X0.4500*%
%ADD32R,1.6000X2.5000*%
%ADD33R,1.6000X3.5000*%
%ADD34R,0.8000X0.9000*%
%ADD35R,3.4500X3.4500*%
%ADD36O,0.2500X0.5500*%
%ADD37O,0.5500X0.2500*%
%ADD38R,0.3250X0.4000*%
%ADD39R,3.5000X1.6000*%
%ADD40R,3.5000X1.6000*%
%ADD41R,2.1800X1.6200*%
%ADD42R,2.0000X2.5000*%
%ADD43R,0.9500X1.0000*%
%ADD44R,5.7000X1.6000*%
%ADD45R,1.6000X0.8500*%
%ADD46O,2.2000X0.6000*%
%ADD47R,1.1000X0.6000*%
%ADD48R,1.4000X1.0000*%
%ADD49R,1.0000X0.6000*%
%ADD96R,1.5000X1.5000*%
%ADD97C,1.5000*%
%ADD98C,2.0000*%
%ADD99R,2.0000X2.0000*%
%ADD100C,2.6000*%
%ADD101C,4.0000*%
%ADD102C,2.5000*%
%ADD103R,1.8000X1.8000*%
%ADD104C,1.8000*%
D19*
X351000Y337000D02*
D03*
X356000D02*
D03*
X361000D02*
D03*
Y312500D02*
D03*
X356000D02*
D03*
X351000D02*
D03*
D20*
X368250Y334750D02*
D03*
Y329750D02*
D03*
Y324750D02*
D03*
Y319750D02*
D03*
Y314750D02*
D03*
X343750D02*
D03*
Y319750D02*
D03*
Y324750D02*
D03*
Y329750D02*
D03*
Y334750D02*
D03*
D21*
X160750Y1146750D02*
D03*
X176250D02*
D03*
X149750Y145000D02*
D03*
X134250D02*
D03*
X82000D02*
D03*
X66500D02*
D03*
X130500Y57000D02*
D03*
X146000D02*
D03*
Y73500D02*
D03*
X130500D02*
D03*
X223515Y110189D02*
D03*
X208015D02*
D03*
X223265Y144621D02*
D03*
X207765D02*
D03*
X223265Y127371D02*
D03*
X207765D02*
D03*
X255765Y144621D02*
D03*
X240265D02*
D03*
X255765Y127371D02*
D03*
X240265D02*
D03*
X255765Y110189D02*
D03*
X240265D02*
D03*
X584250Y1127550D02*
D03*
X568750D02*
D03*
X641750Y1090800D02*
D03*
X626250D02*
D03*
X626353Y1108495D02*
D03*
X641853D02*
D03*
X550750Y1127550D02*
D03*
X535250D02*
D03*
X366979Y355389D02*
D03*
X382479D02*
D03*
X366979Y371889D02*
D03*
X382479D02*
D03*
X366229Y294389D02*
D03*
X381729D02*
D03*
X170500Y356000D02*
D03*
X155000D02*
D03*
X170000Y275500D02*
D03*
X154500D02*
D03*
X366229Y276750D02*
D03*
X381729D02*
D03*
X155000Y324250D02*
D03*
X170500D02*
D03*
X155000Y308000D02*
D03*
X170500D02*
D03*
X105500Y356250D02*
D03*
X121000D02*
D03*
Y275500D02*
D03*
X105500D02*
D03*
X646611Y153602D02*
D03*
X631111D02*
D03*
X466750Y110250D02*
D03*
X482250D02*
D03*
X127000Y1131250D02*
D03*
X142500D02*
D03*
X68750Y1110000D02*
D03*
X84250D02*
D03*
Y1092250D02*
D03*
X68750D02*
D03*
X386500Y844250D02*
D03*
X371000D02*
D03*
X438000Y1018750D02*
D03*
X453500D02*
D03*
X437500Y600750D02*
D03*
X422000D02*
D03*
X390750Y508250D02*
D03*
X406250D02*
D03*
X304750Y769250D02*
D03*
X320250D02*
D03*
X353500Y769250D02*
D03*
X338000D02*
D03*
X267460Y848020D02*
D03*
X282960D02*
D03*
X287500Y1120750D02*
D03*
X303000D02*
D03*
X124000Y562750D02*
D03*
X139500D02*
D03*
Y580500D02*
D03*
X124000D02*
D03*
X320250Y751500D02*
D03*
X304750D02*
D03*
X338000Y751500D02*
D03*
X353500D02*
D03*
X315710Y865270D02*
D03*
X300210D02*
D03*
X282710D02*
D03*
X267210D02*
D03*
X330500Y654000D02*
D03*
X315000D02*
D03*
X243500Y596250D02*
D03*
X259000D02*
D03*
X244750Y646750D02*
D03*
X260250D02*
D03*
D22*
X369750Y576250D02*
D03*
Y553250D02*
D03*
Y530250D02*
D03*
D23*
X427750Y553250D02*
D03*
D24*
X186500Y117250D02*
D03*
Y101750D02*
D03*
X602750Y1128050D02*
D03*
Y1143550D02*
D03*
X516861Y170102D02*
D03*
Y154602D02*
D03*
X533611Y170102D02*
D03*
Y154602D02*
D03*
X550361Y170102D02*
D03*
Y154602D02*
D03*
X557600Y32347D02*
D03*
Y16847D02*
D03*
X54500Y234750D02*
D03*
Y219250D02*
D03*
X187000Y275500D02*
D03*
Y260000D02*
D03*
X137900Y761000D02*
D03*
Y745500D02*
D03*
X594751Y86999D02*
D03*
Y102499D02*
D03*
X578267Y87096D02*
D03*
Y102596D02*
D03*
X54500Y202750D02*
D03*
Y187250D02*
D03*
X541020Y16847D02*
D03*
Y32347D02*
D03*
X554811Y70352D02*
D03*
Y54852D02*
D03*
X574111D02*
D03*
Y70352D02*
D03*
X137750Y340750D02*
D03*
Y356250D02*
D03*
Y275500D02*
D03*
Y291000D02*
D03*
X483861Y170102D02*
D03*
Y154602D02*
D03*
X500361Y170102D02*
D03*
Y154602D02*
D03*
X163300Y760861D02*
D03*
Y745361D02*
D03*
X577263Y236500D02*
D03*
Y252000D02*
D03*
X137750Y308250D02*
D03*
Y323750D02*
D03*
X567361Y170102D02*
D03*
Y154602D02*
D03*
X584111Y170102D02*
D03*
Y154602D02*
D03*
X498551Y70352D02*
D03*
Y54852D02*
D03*
X515301D02*
D03*
Y70352D02*
D03*
X531971D02*
D03*
Y54852D02*
D03*
X109250Y1131500D02*
D03*
Y1147000D02*
D03*
X286500Y1062500D02*
D03*
Y1047000D02*
D03*
X45500Y376000D02*
D03*
Y360500D02*
D03*
X301250Y376000D02*
D03*
Y360500D02*
D03*
X560000Y376000D02*
D03*
Y360500D02*
D03*
X105250Y560750D02*
D03*
Y545250D02*
D03*
X231250Y910250D02*
D03*
Y894750D02*
D03*
X302750Y203750D02*
D03*
Y219250D02*
D03*
X278250Y612500D02*
D03*
Y597000D02*
D03*
X372100Y633250D02*
D03*
Y617750D02*
D03*
X392000Y633250D02*
D03*
Y617750D02*
D03*
X260750Y579000D02*
D03*
Y563500D02*
D03*
X278430Y579010D02*
D03*
Y563510D02*
D03*
X242750Y628750D02*
D03*
Y613250D02*
D03*
X542500Y1021500D02*
D03*
Y1037000D02*
D03*
X605500Y813750D02*
D03*
Y829250D02*
D03*
X106250Y813750D02*
D03*
Y829250D02*
D03*
X604000Y1028750D02*
D03*
Y1013250D02*
D03*
X542500Y971500D02*
D03*
Y987000D02*
D03*
X604500Y979750D02*
D03*
Y995250D02*
D03*
X604500Y217750D02*
D03*
Y233250D02*
D03*
X604500Y299750D02*
D03*
Y284250D02*
D03*
X260750Y628750D02*
D03*
Y613250D02*
D03*
D25*
X164750Y99591D02*
D03*
Y106091D02*
D03*
Y112591D02*
D03*
Y119091D02*
D03*
X125750D02*
D03*
Y112591D02*
D03*
Y106091D02*
D03*
Y99591D02*
D03*
D26*
X155000Y128841D02*
D03*
X148500D02*
D03*
X142000D02*
D03*
X135500D02*
D03*
Y89841D02*
D03*
X142000D02*
D03*
X148500D02*
D03*
X155000D02*
D03*
D27*
X145250Y109341D02*
D03*
D28*
X226910Y331500D02*
D03*
X216750D02*
D03*
X206590D02*
D03*
X506500Y1127250D02*
D03*
X496340D02*
D03*
X210250Y1146970D02*
D03*
X200090D02*
D03*
X224160Y295591D02*
D03*
X214000D02*
D03*
X402910Y251500D02*
D03*
X392750D02*
D03*
D29*
X622200Y1146500D02*
D03*
X646800D02*
D03*
Y1129500D02*
D03*
X622200D02*
D03*
X89800Y1146750D02*
D03*
X65200D02*
D03*
Y1129750D02*
D03*
X89800D02*
D03*
D30*
X568500Y1144050D02*
D03*
X584500D02*
D03*
X103750Y329000D02*
D03*
X119750D02*
D03*
X103750Y303600D02*
D03*
X119750D02*
D03*
X143000Y1147000D02*
D03*
X127000D02*
D03*
X505111Y31079D02*
D03*
X521111D02*
D03*
D31*
X533013Y262000D02*
D03*
Y252000D02*
D03*
Y242000D02*
D03*
X562013Y262000D02*
D03*
Y252000D02*
D03*
Y242000D02*
D03*
D32*
X547513Y252000D02*
D03*
D33*
X137000Y184750D02*
D03*
Y238750D02*
D03*
D34*
X600361Y152852D02*
D03*
X614861D02*
D03*
X600361Y171352D02*
D03*
X614861D02*
D03*
D35*
X532250Y112500D02*
D03*
D36*
X549750Y88750D02*
D03*
X544750D02*
D03*
X539750D02*
D03*
X534750D02*
D03*
X529750D02*
D03*
X524750D02*
D03*
X519750D02*
D03*
X514750D02*
D03*
Y136250D02*
D03*
X519750D02*
D03*
X524750D02*
D03*
X529750D02*
D03*
X534750D02*
D03*
X539750D02*
D03*
X544750D02*
D03*
X549750D02*
D03*
D37*
X508500Y95000D02*
D03*
Y100000D02*
D03*
Y105000D02*
D03*
Y110000D02*
D03*
Y115000D02*
D03*
Y120000D02*
D03*
Y125000D02*
D03*
Y130000D02*
D03*
X556000D02*
D03*
Y125000D02*
D03*
Y120000D02*
D03*
Y115000D02*
D03*
Y110000D02*
D03*
Y105000D02*
D03*
Y100000D02*
D03*
Y95000D02*
D03*
D38*
X515736Y15829D02*
D03*
X524486D02*
D03*
D39*
X510750Y500500D02*
D03*
X454750D02*
D03*
D40*
X236250Y1079000D02*
D03*
X176250D02*
D03*
D41*
X531500Y576000D02*
D03*
Y618200D02*
D03*
D42*
X432200Y646450D02*
D03*
X474200D02*
D03*
D43*
X567000Y618200D02*
D03*
Y634200D02*
D03*
Y527892D02*
D03*
Y543892D02*
D03*
D44*
X323750Y533250D02*
D03*
Y580250D02*
D03*
D45*
X341500Y1082250D02*
D03*
Y1064750D02*
D03*
X370500Y1082250D02*
D03*
Y1064750D02*
D03*
X91600Y452250D02*
D03*
Y434750D02*
D03*
X120600Y452250D02*
D03*
Y434750D02*
D03*
X341500Y452250D02*
D03*
Y434750D02*
D03*
X370500Y452250D02*
D03*
Y434750D02*
D03*
X591500Y452250D02*
D03*
Y434750D02*
D03*
X620500Y452250D02*
D03*
Y434750D02*
D03*
X341500Y154750D02*
D03*
Y137250D02*
D03*
X370500Y154750D02*
D03*
Y137250D02*
D03*
D46*
X371260Y787640D02*
D03*
Y800340D02*
D03*
Y813040D02*
D03*
Y825740D02*
D03*
X323260Y787640D02*
D03*
Y800340D02*
D03*
Y813040D02*
D03*
Y825740D02*
D03*
D47*
X447250Y813500D02*
D03*
Y804000D02*
D03*
Y794500D02*
D03*
X419250D02*
D03*
Y804000D02*
D03*
Y813500D02*
D03*
D48*
X563000Y1038250D02*
D03*
Y1019250D02*
D03*
X585000Y1028750D02*
D03*
X563000Y989250D02*
D03*
Y970250D02*
D03*
X585000Y979750D02*
D03*
D49*
X303200Y612650D02*
D03*
Y622150D02*
D03*
Y631650D02*
D03*
X330700D02*
D03*
Y622150D02*
D03*
Y612650D02*
D03*
D96*
X79240Y1026200D02*
D03*
X78500Y289350D02*
D03*
X62000Y122000D02*
D03*
X259300Y987800D02*
D03*
X53000Y847090D02*
D03*
X659250D02*
D03*
X633730D02*
D03*
X78740D02*
D03*
X79240Y565750D02*
D03*
X633320Y1045450D02*
D03*
X97500Y97870D02*
D03*
D97*
X79240Y1000800D02*
D03*
Y975400D02*
D03*
Y950000D02*
D03*
X78500Y314750D02*
D03*
X53500Y1010350D02*
D03*
Y1061150D02*
D03*
Y1035750D02*
D03*
X633320Y569292D02*
D03*
Y543892D02*
D03*
Y518492D02*
D03*
X62000Y96600D02*
D03*
X78500Y228500D02*
D03*
Y203100D02*
D03*
Y177700D02*
D03*
X437100Y911600D02*
D03*
X411700D02*
D03*
X386300D02*
D03*
X360900D02*
D03*
X335500D02*
D03*
X310100D02*
D03*
X284700D02*
D03*
X259300D02*
D03*
X437100Y987800D02*
D03*
X411700D02*
D03*
X386300D02*
D03*
X360900D02*
D03*
X335500D02*
D03*
X310100D02*
D03*
X284700D02*
D03*
X53000Y720090D02*
D03*
Y745490D02*
D03*
Y770890D02*
D03*
Y796290D02*
D03*
Y821690D02*
D03*
X659250Y720090D02*
D03*
Y745490D02*
D03*
Y770890D02*
D03*
Y796290D02*
D03*
Y821690D02*
D03*
X633730Y669290D02*
D03*
Y694690D02*
D03*
Y720090D02*
D03*
Y745490D02*
D03*
Y770890D02*
D03*
Y796290D02*
D03*
Y821690D02*
D03*
X78740D02*
D03*
Y796290D02*
D03*
Y770890D02*
D03*
Y745490D02*
D03*
Y720090D02*
D03*
Y694690D02*
D03*
Y669290D02*
D03*
X79240Y540350D02*
D03*
X633320Y969250D02*
D03*
Y994650D02*
D03*
Y1020050D02*
D03*
X630200Y233400D02*
D03*
Y258800D02*
D03*
Y284200D02*
D03*
X97500Y123270D02*
D03*
D98*
X152450Y1014250D02*
D03*
D99*
X257050D02*
D03*
D100*
X356004Y183603D02*
D03*
X681003Y31004D02*
D03*
X356004Y481004D02*
D03*
X31004Y31004D02*
D03*
X681003Y1141004D02*
D03*
X559004Y422504D02*
D03*
X106004Y481004D02*
D03*
X606004D02*
D03*
X106004Y406004D02*
D03*
X356004D02*
D03*
X31004Y1141004D02*
D03*
D101*
X490000Y565000D02*
D03*
X210000D02*
D03*
X350000Y875000D02*
D03*
D102*
X356004Y1111004D02*
D03*
Y1036004D02*
D03*
X318504Y146004D02*
D03*
X393503D02*
D03*
D103*
X112500Y721750D02*
D03*
X163300Y696350D02*
D03*
X214100Y721750D02*
D03*
X264900Y696350D02*
D03*
X341100D02*
D03*
X417300Y721750D02*
D03*
X468100Y696350D02*
D03*
X518900D02*
D03*
X595100Y721750D02*
D03*
D104*
X112500Y696350D02*
D03*
X137900Y721750D02*
D03*
Y696350D02*
D03*
X163300Y721750D02*
D03*
X188700D02*
D03*
Y696350D02*
D03*
X214100D02*
D03*
X239500Y721750D02*
D03*
Y696350D02*
D03*
X264900Y721750D02*
D03*
X290300D02*
D03*
Y696350D02*
D03*
X315700Y721750D02*
D03*
Y696350D02*
D03*
X341100Y721750D02*
D03*
X366500D02*
D03*
Y696350D02*
D03*
X391900Y721750D02*
D03*
Y696350D02*
D03*
X417300D02*
D03*
X442700Y721750D02*
D03*
Y696350D02*
D03*
X468100Y721750D02*
D03*
X493500D02*
D03*
Y696350D02*
D03*
X518900Y721750D02*
D03*
X544300D02*
D03*
Y696350D02*
D03*
X569700Y721750D02*
D03*
Y696350D02*
D03*
X595100D02*
D03*
M02*
