G04*
G04 #@! TF.GenerationSoftware,Altium Limited,Altium Designer,19.1.7 (138)*
G04*
G04 Layer_Color=16711935*
%FSLAX44Y44*%
%MOMM*%
G71*
G01*
G75*
%ADD80R,1.6524X1.6524*%
%ADD81C,1.6524*%
%ADD82C,2.1524*%
%ADD83R,2.1524X2.1524*%
%ADD84C,2.7524*%
%ADD85C,4.1524*%
%ADD86C,2.6524*%
%ADD87R,1.9524X1.9524*%
%ADD88C,1.9524*%
%ADD89C,0.6524*%
D80*
X79240Y1026200D02*
D03*
X78500Y289350D02*
D03*
X62000Y122000D02*
D03*
X259300Y987800D02*
D03*
X53000Y847090D02*
D03*
X659250D02*
D03*
X633730D02*
D03*
X78740D02*
D03*
X79240Y565750D02*
D03*
X633320Y1045450D02*
D03*
X97500Y97870D02*
D03*
D81*
X79240Y1000800D02*
D03*
Y975400D02*
D03*
Y950000D02*
D03*
X78500Y314750D02*
D03*
X53500Y1010350D02*
D03*
Y1061150D02*
D03*
Y1035750D02*
D03*
X633320Y569292D02*
D03*
Y543892D02*
D03*
Y518492D02*
D03*
X62000Y96600D02*
D03*
X78500Y228500D02*
D03*
Y203100D02*
D03*
Y177700D02*
D03*
X437100Y911600D02*
D03*
X411700D02*
D03*
X386300D02*
D03*
X360900D02*
D03*
X335500D02*
D03*
X310100D02*
D03*
X284700D02*
D03*
X259300D02*
D03*
X437100Y987800D02*
D03*
X411700D02*
D03*
X386300D02*
D03*
X360900D02*
D03*
X335500D02*
D03*
X310100D02*
D03*
X284700D02*
D03*
X53000Y720090D02*
D03*
Y745490D02*
D03*
Y770890D02*
D03*
Y796290D02*
D03*
Y821690D02*
D03*
X659250Y720090D02*
D03*
Y745490D02*
D03*
Y770890D02*
D03*
Y796290D02*
D03*
Y821690D02*
D03*
X633730Y669290D02*
D03*
Y694690D02*
D03*
Y720090D02*
D03*
Y745490D02*
D03*
Y770890D02*
D03*
Y796290D02*
D03*
Y821690D02*
D03*
X78740D02*
D03*
Y796290D02*
D03*
Y770890D02*
D03*
Y745490D02*
D03*
Y720090D02*
D03*
Y694690D02*
D03*
Y669290D02*
D03*
X79240Y540350D02*
D03*
X633320Y969250D02*
D03*
Y994650D02*
D03*
Y1020050D02*
D03*
X630200Y233400D02*
D03*
Y258800D02*
D03*
Y284200D02*
D03*
X97500Y123270D02*
D03*
D82*
X152450Y1014250D02*
D03*
D83*
X257050D02*
D03*
D84*
X356004Y183603D02*
D03*
X681003Y31004D02*
D03*
X356004Y481004D02*
D03*
X31004Y31004D02*
D03*
X681003Y1141004D02*
D03*
X559004Y422504D02*
D03*
X106004Y481004D02*
D03*
X606004D02*
D03*
X106004Y406004D02*
D03*
X356004D02*
D03*
X31004Y1141004D02*
D03*
D85*
X490000Y565000D02*
D03*
X210000D02*
D03*
X350000Y875000D02*
D03*
D86*
X356004Y1111004D02*
D03*
Y1036004D02*
D03*
X318504Y146004D02*
D03*
X393503D02*
D03*
D87*
X112500Y721750D02*
D03*
X163300Y696350D02*
D03*
X214100Y721750D02*
D03*
X264900Y696350D02*
D03*
X341100D02*
D03*
X417300Y721750D02*
D03*
X468100Y696350D02*
D03*
X518900D02*
D03*
X595100Y721750D02*
D03*
D88*
X112500Y696350D02*
D03*
X137900Y721750D02*
D03*
Y696350D02*
D03*
X163300Y721750D02*
D03*
X188700D02*
D03*
Y696350D02*
D03*
X214100D02*
D03*
X239500Y721750D02*
D03*
Y696350D02*
D03*
X264900Y721750D02*
D03*
X290300D02*
D03*
Y696350D02*
D03*
X315700Y721750D02*
D03*
Y696350D02*
D03*
X341100Y721750D02*
D03*
X366500D02*
D03*
Y696350D02*
D03*
X391900Y721750D02*
D03*
Y696350D02*
D03*
X417300D02*
D03*
X442700Y721750D02*
D03*
Y696350D02*
D03*
X468100Y721750D02*
D03*
X493500D02*
D03*
Y696350D02*
D03*
X518900Y721750D02*
D03*
X544300D02*
D03*
Y696350D02*
D03*
X569700Y721750D02*
D03*
Y696350D02*
D03*
X595100D02*
D03*
D89*
X150750Y103841D02*
D03*
X139750D02*
D03*
X150750Y114841D02*
D03*
X139750D02*
D03*
X521250Y112500D02*
D03*
X532250D02*
D03*
X543250D02*
D03*
X521250Y101500D02*
D03*
X532250D02*
D03*
X543250D02*
D03*
Y123500D02*
D03*
X532250D02*
D03*
X521250D02*
D03*
M02*
